<?xml version="1.0" encoding="UTF-8" standalone="no"?>
<svg
   xmlns:dc="http://purl.org/dc/elements/1.1/"
   xmlns:cc="http://creativecommons.org/ns#"
   xmlns:rdf="http://www.w3.org/1999/02/22-rdf-syntax-ns#"
   xmlns:svg="http://www.w3.org/2000/svg"
   xmlns="http://www.w3.org/2000/svg"
   xmlns:sodipodi="http://sodipodi.sourceforge.net/DTD/sodipodi-0.dtd"
   xmlns:inkscape="http://www.inkscape.org/namespaces/inkscape"
   sodipodi:docname="HotaruCard.svg"
   inkscape:version="1.0 (4035a4fb49, 2020-05-01)"
   id="svg8"
   version="1.1"
   viewBox="0 0 210 297"
   height="297mm"
   width="210mm">
  <defs
     id="defs2" />
  <sodipodi:namedview
     inkscape:window-maximized="0"
     inkscape:window-y="0"
     inkscape:window-x="52"
     inkscape:window-height="1040"
     inkscape:window-width="1513"
     showgrid="false"
     inkscape:document-rotation="0"
     inkscape:current-layer="layer1"
     inkscape:document-units="mm"
     inkscape:cy="457.21319"
     inkscape:cx="514.02679"
     inkscape:zoom="0.7"
     inkscape:pageshadow="2"
     inkscape:pageopacity="0.0"
     borderopacity="1.0"
     bordercolor="#666666"
     pagecolor="#ffffff"
     id="base" />
  <metadata
     id="metadata5">
    <rdf:RDF>
      <cc:Work
         rdf:about="">
        <dc:format>image/svg+xml</dc:format>
        <dc:type
           rdf:resource="http://purl.org/dc/dcmitype/StillImage" />
        <dc:title></dc:title>
      </cc:Work>
    </rdf:RDF>
  </metadata>
  <g
     id="layer1"
     inkscape:groupmode="layer"
     inkscape:label="Слой 1">
    <g
       transform="matrix(0.01915214,0,0,-0.02147628,-26.561561,201.55974)"
       fill="#000000"
       stroke="none"
       id="g851">
      <path
         sodipodi:nodetypes="ccccsccccccccccccccsccccccccccccccsc"
         d="m 3843,1581 c -39.0984,-236.3413 -50,-399.2016 -19,-541 60,-85 142,-155 225,-192 52,-24 281,-73 1511,-328 C 7046,213 8070,9 8132,9 c 72,0 128,15 203,54 78,42 184,147 218,217 57,118 104,339 807,3785 267,1310 367,1815 416,2088 26,145 27,163 16,230 -25,141 -129,295 -235,346 -101,49 -662,169 -2627,561 -747,149 -1224,242 -1442,279 -97,17 -128,19 -175,10 -73,-14 -143.7665,-41.4001 -222.7665,-98.4001 z m 1055,5011 v -0.01 L 4815,6194 4291,3700 C 4048.9613,2548.0065 3847,1594 3843,1581 c 43.1075,119.1472 1055,5011 1055,5011 z m 1478,439 c 1467,-296 2278,-464 2756,-571 192,-43 225,-53 250,-77 16,-15 31,-37 34,-48 10,-43 -102,-633 -415,-2175 C 8442,1406 8290,679 8239,515 c -21,-67 -57,-109 -106,-122 -27,-6 -237,34 -1583,306 -2122,428 -2351,479 -2421,544 -20,19 -21,27 -16,96 7,85 239,1247 646,3236 465,2275 524,2545 564,2594 19,23 70,51 93,51 12,0 444,-85 960,-189 z"
         id="path833" />
      <path
         d="m 6104,4761 c -192,-52 -321,-161 -423,-356 l -36,-70 v -220 -220 l 38,-110 c 110,-323 341,-667 689,-1030 l 125,-130 84,34 c 426,173 865,448 1069,669 126,137 239,330 271,462 17,72 17,221 0,290 -45,181 -168,333 -343,421 -84,42 -160,59 -268,59 -163,0 -251,-28 -385,-119 -33,-23 -63,-41 -67,-41 -3,0 -32,37 -64,83 -104,148 -191,216 -344,267 -95,32 -252,37 -346,11 z"
         id="path845" />
    </g>
  </g>
</svg>
