<?xml version="1.0" encoding="UTF-8" standalone="no"?>
<svg
   xmlns:dc="http://purl.org/dc/elements/1.1/"
   xmlns:cc="http://creativecommons.org/ns#"
   xmlns:rdf="http://www.w3.org/1999/02/22-rdf-syntax-ns#"
   xmlns:svg="http://www.w3.org/2000/svg"
   xmlns="http://www.w3.org/2000/svg"
   xmlns:sodipodi="http://sodipodi.sourceforge.net/DTD/sodipodi-0.dtd"
   xmlns:inkscape="http://www.inkscape.org/namespaces/inkscape"
   sodipodi:docname="TrainingPass.svg"
   inkscape:version="1.0 (4035a4fb49, 2020-05-01)"
   id="svg2878"
   version="1.1"
   viewBox="0 0 210 297"
   height="297mm"
   width="210mm">
  <defs
     id="defs2872" />
  <sodipodi:namedview
     inkscape:window-maximized="0"
     inkscape:window-y="0"
     inkscape:window-x="26"
     inkscape:window-height="1040"
     inkscape:window-width="1513"
     showgrid="false"
     inkscape:document-rotation="0"
     inkscape:current-layer="layer1"
     inkscape:document-units="mm"
     inkscape:cy="411.65454"
     inkscape:cx="493.11846"
     inkscape:zoom="0.49497475"
     inkscape:pageshadow="2"
     inkscape:pageopacity="0.0"
     borderopacity="1.0"
     bordercolor="#666666"
     pagecolor="#ffffff"
     id="base" />
  <metadata
     id="metadata2875">
    <rdf:RDF>
      <cc:Work
         rdf:about="">
        <dc:format>image/svg+xml</dc:format>
        <dc:type
           rdf:resource="http://purl.org/dc/dcmitype/StillImage" />
        <dc:title></dc:title>
      </cc:Work>
    </rdf:RDF>
  </metadata>
  <g
     id="layer1"
     inkscape:groupmode="layer"
     inkscape:label="Слой 1">
    <g
       transform="matrix(0.60766031,0,0,0.66676371,-30.632693,2.538399)"
       id="g3514">
      <g
         id="g3453">
	<path
   d="m 328.728,64.036 h -72.25 V 10 c 0,-5.522 -4.478,-10 -10,-10 h -55 c -5.522,0 -10,4.478 -10,10 v 54.036 h -72.25 c -27.57,0 -50,22.43 -50,50 v 273.919 c 0,27.57 22.43,50 50,50 h 219.5 c 27.57,0 50,-22.43 50,-50 V 114.036 c 0,-27.57 -22.43,-50 -50,-50 z M 201.478,20 h 35 v 73.955 h -35 z m 157.25,367.955 c 0,16.542 -13.458,30 -30,30 h -219.5 c -16.542,0 -30,-13.458 -30,-30 V 114.036 c 0,-16.542 13.458,-30 30,-30 h 72.25 v 9.919 h -10 c -5.522,0 -10,4.478 -10,10 0,5.522 4.478,10 10,10 h 95 c 5.522,0 10,-4.478 10,-10 0,-5.522 -4.478,-10 -10,-10 h -10 v -9.919 h 72.25 c 16.542,0 30,13.458 30,30 z"
   id="path3441" />

	<path
   d="m 218.978,51 c 5.79,0 10.5,-4.71 10.5,-10.5 0,-5.79 -4.71,-10.5 -10.5,-10.5 -5.79,0 -10.5,4.71 -10.5,10.5 0,5.79 4.71,10.5 10.5,10.5 z"
   id="path3443" />

	<path
   d="m 290.978,357.955 h -144 c -5.522,0 -10,4.478 -10,10 0,5.522 4.478,10 10,10 h 144 c 5.522,0 10,-4.478 10,-10 0,-5.522 -4.478,-10 -10,-10 z"
   id="path3445" />

	
	
	<path
   d="m 290.978,153.955 h -144 c -5.522,0 -10,4.478 -10,10 v 144 c 0,5.522 4.478,10 10,10 h 144 c 5.522,0 10,-4.478 10,-10 v -31.892 c 0,-5.522 -4.478,-10 -10,-10 -5.522,0 -10,4.478 -10,10 v 21.892 h -124 v -124 h 124 v 68.001 c 0,5.522 4.478,10 10,10 5.522,0 10,-4.478 10,-10 v -78.001 c 0,-5.522 -4.478,-10 -10,-10 z"
   id="path3451" />

</g>
      <g
         id="g3455">
</g>
      <g
         id="g3457">
</g>
      <g
         id="g3459">
</g>
      <g
         id="g3461">
</g>
      <g
         id="g3463">
</g>
      <g
         id="g3465">
</g>
      <g
         id="g3467">
</g>
      <g
         id="g3469">
</g>
      <g
         id="g3471">
</g>
      <g
         id="g3473">
</g>
      <g
         id="g3475">
</g>
      <g
         id="g3477">
</g>
      <g
         id="g3479">
</g>
      <g
         id="g3481">
</g>
      <g
         id="g3483">
</g>
    </g>
    <path
       style="fill:#472ad3;fill-opacity:1;stroke:none;stroke-width:0.00827639"
       id="path3530"
       d="m 111.3686,129.64705 c -0.0369,0.0186 -0.53812,0.1394 -1.10573,0.26019 -1.48167,0.30665 -2.57267,0.93852 -4.03959,2.32309 -1.03202,0.97569 -1.61437,1.65403 -1.93135,2.25804 -0.47915,0.90135 -1.72493,4.12578 -1.72493,4.46031 0,0.26019 0.0516,0.34381 0.39806,0.62258 0.3096,0.2509 0.47178,0.47391 0.70029,0.9757 0.16955,0.3624 0.37595,0.7155 0.45704,0.78984 0.0811,0.065 0.11795,0.15797 0.0811,0.18585 -0.0369,0.0279 -0.56761,0.0837 -1.1647,0.11152 -1.04676,0.0557 -1.1131,0.0743 -1.43745,0.32523 -0.41281,0.32523 -0.48652,0.33452 -0.8035,0.0371 -0.32434,-0.30665 -0.63395,-0.29735 -0.891949,0.009 -0.12532,0.14868 -0.25063,0.22302 -0.31698,0.19514 -0.162172,-0.0744 -0.412803,-0.62259 -0.412803,-0.88277 0,-0.27878 -0.309605,-0.41816 -0.737153,-0.34382 -0.412804,0.0744 -0.523378,0.19514 -0.471778,0.46461 0.04423,0.21373 -0.07372,0.59472 -0.221145,0.71552 -0.04423,0.0371 -0.265375,0.0744 -0.493893,0.0744 -0.316976,0 -0.442291,-0.0371 -0.545493,-0.18585 -0.191659,-0.26948 -0.560236,-0.2416 -0.840352,0.0557 -0.206404,0.21372 -0.265375,0.23232 -0.648696,0.17656 -0.235889,-0.0371 -0.958299,-0.21372 -1.606992,-0.39028 -1.076244,-0.28806 -1.267903,-0.31594 -2.196715,-0.28806 -0.803498,0.0186 -1.032015,0.0557 -1.083614,0.16726 -0.08109,0.15797 -0.09583,1.89564 -0.02949,2.43459 l 0.05161,0.35311 h 0.958299 c 0.847724,0 1.10573,-0.0464 2.255687,-0.3624 0.715038,-0.20443 1.518534,-0.39957 1.783909,-0.43674 l 0.486522,-0.0557 0.08108,0.29736 c 0.176917,0.62258 -0.221145,0.85489 -0.766639,0.44603 l -0.265376,-0.19514 -0.309602,0.18585 c -0.567608,0.35311 -0.818241,0.41815 -2.145116,0.50179 -1.680707,0.1115 -9.295495,0.15796 -9.568241,0.0557 -0.206403,-0.0743 -0.206403,-0.0837 -0.162174,-0.56682 0.06634,-0.65976 -0.08846,-1.07792 -0.398062,-1.07792 -0.176917,0 -0.228518,0.0464 -0.265376,0.26948 -0.02211,0.14868 -0.0073,0.43674 0.02949,0.64118 0.103201,0.46461 0.0516,0.63187 -0.206403,0.69692 -0.265375,0.065 -0.309604,0.22302 -0.221146,0.71551 0.0516,0.30665 0.0516,0.43674 -0.02211,0.52036 -0.154802,0.18586 -0.973041,0.31595 -2.064027,0.31595 -0.552865,0 -1.555392,0.065 -2.233573,0.14868 -0.928813,0.1115 -1.599621,0.13009 -2.823295,0.0743 -2.661121,-0.10221 -6.560658,-0.0743 -6.685975,0.0557 -0.132687,0.13938 -0.147431,0.88277 -0.03686,1.26375 l 0.08109,0.2509 2.425233,-0.065 c 1.658593,-0.0371 2.498947,-0.093 2.639006,-0.17655 0.147431,-0.0837 1.385847,-0.11151 5.137955,-0.10222 2.720092,0 5.056867,0.0371 5.204298,0.0743 l 0.272745,0.0557 0.02949,0.78985 c 0.01474,0.43674 0.0516,0.80844 0.07372,0.83631 0.02211,0.0279 0.162174,-0.0186 0.316976,-0.10222 0.250632,-0.13008 0.398062,-0.13008 1.282645,-0.0371 0.552865,0.0651 1.267903,0.13938 1.59225,0.17656 0.560237,0.0557 0.619208,0.0837 1.30476,0.63188 0.825611,0.65045 0.899327,0.68763 2.078771,0.9664 0.92144,0.21372 1.149957,0.36239 1.149957,0.76196 0,0.27878 0.147432,0.53896 0.781383,1.36598 0.287489,0.39028 0.57498,0.8456 0.633952,1.02216 0.14006,0.39957 0.589721,0.95711 1.31213,1.60756 0.493893,0.44604 0.567609,0.54825 0.72241,1.04075 0.08846,0.30665 0.258005,0.8456 0.361207,1.18942 0.147429,0.4739 0.176915,0.67834 0.125316,0.78985 -0.04423,0.0836 -0.486523,0.62258 -0.987785,1.1987 -0.501264,0.56684 -0.995156,1.20801 -1.113102,1.41244 -0.294861,0.56683 -0.457034,1.53323 -0.479148,2.84345 -0.0073,0.91994 -0.04423,1.24517 -0.206403,1.85847 -0.110574,0.40886 -0.368577,1.47747 -0.567608,2.36954 -0.420177,1.83058 -0.560236,2.23016 -1.341619,3.78198 -0.302233,0.604 -0.818239,1.76554 -1.142586,2.58326 -0.331719,0.81773 -0.840354,2.05361 -1.127844,2.74124 -0.471777,1.13367 -0.516006,1.28234 -0.471777,1.62616 0.0516,0.45532 0.324348,1.16154 0.641323,1.69121 l 0.228517,0.39027 -0.368576,0.7248 c -0.206403,0.39957 -0.611837,1.208 -0.906698,1.79342 -0.995156,2.00715 -2.521063,4.36739 -3.029698,4.70192 -0.184287,0.1208 -0.280118,0.1115 -0.891955,-0.065 -1.002527,-0.28806 -1.820767,-0.26948 -2.425232,0.0557 -0.258003,0.13939 -0.545493,0.26949 -0.633951,0.29736 -0.243261,0.0744 -0.398062,0.33452 -0.62658,1.07791 -0.235889,0.78056 -0.258003,1.06861 -0.08109,1.53324 0.206403,0.55753 1.032013,1.52394 1.59225,1.87704 l 0.508635,0.31594 0.855097,-0.15797 c 0.479149,-0.0837 1.083614,-0.15797 1.363732,-0.15797 h 0.493856 v 0.69693 0.68763 l 0.759268,0.28806 c 0.412804,0.15797 1.164701,0.45533 1.673336,0.65047 1.120472,0.43673 1.968197,0.58541 3.037069,0.53895 0.766638,-0.0279 0.818239,-0.0464 0.973042,-0.26947 0.110572,-0.16727 0.213773,-0.52037 0.294861,-1.06862 0.07372,-0.45533 0.213773,-1.22659 0.309603,-1.70979 0.147431,-0.70622 0.206403,-1.31951 0.280118,-3.07576 0.110574,-2.48105 0.09583,-2.4253 0.891956,-4.03287 0.228516,-0.46462 0.442291,-0.89207 0.471778,-0.96641 0.03686,-0.065 0.235888,-0.16726 0.457034,-0.21372 0.670809,-0.15797 0.891954,-0.35311 1.201559,-1.09649 0.154801,-0.36241 0.464407,-0.91995 0.685552,-1.23588 0.597093,-0.83631 0.707667,-1.06862 1.828138,-3.78199 0.560236,-1.35667 1.046758,-2.50892 1.083614,-2.56468 0.03686,-0.065 0.110573,-0.43673 0.169546,-0.8363 0.06634,-0.40887 0.250633,-1.30093 0.420178,-1.98856 0.405428,-1.68191 0.508638,-2.23945 0.457038,-2.46247 -0.0295,-0.10221 -0.272751,-0.82701 -0.552868,-1.60757 -0.493894,-1.37527 -0.663437,-2.0536 -0.368576,-1.45889 0.07372,0.14867 0.221145,0.37169 0.324346,0.48319 0.103202,0.11152 0.316975,0.55755 0.479149,0.98499 0.316979,0.86419 0.294859,0.82702 1.489048,1.7005 1.37848,0.99428 1.48168,1.03145 3.89954,1.29163 1.38584,0.14868 1.83551,0.27877 2.18197,0.6133 0.1032,0.1115 0.48652,0.75267 0.8551,1.44031 0.36857,0.67834 0.74452,1.31951 0.84773,1.42172 0.0958,0.093 0.55286,0.37169 1.00989,0.61329 0.44967,0.23231 1.53328,0.80844 2.39575,1.27306 l 1.56276,0.8363 v 0.28807 c 0,0.16726 -0.0811,0.73409 -0.18429,1.27304 -0.11794,0.63188 -0.18428,1.25447 -0.18428,1.77485 0,0.52036 -0.0442,0.92922 -0.11795,1.16153 -0.18429,0.54825 -0.1032,0.95711 0.51601,2.73195 l 0.5676,1.62616 0.68556,0.8456 c 0.75927,0.94781 0.96566,1.11507 1.57751,1.25446 0.22852,0.0557 0.50863,0.15797 0.6192,0.23231 0.30961,0.20443 0.68555,0.15797 1.23842,-0.14868 0.64869,-0.35311 1.23841,-0.46461 2.67586,-0.46461 1.27528,0 1.865,-0.11152 2.95598,-0.56684 0.35384,-0.14868 0.92145,-0.33452 1.25316,-0.40886 1.66597,-0.39957 2.04192,-0.604 2.32204,-1.24517 0.16954,-0.39028 0.18428,-0.39958 0.28748,-0.23231 0.30224,0.49249 0.47179,1.18941 0.58973,2.36025 l 0.11057,1.19871 -0.26537,0.37169 c -0.46441,0.65047 -0.45704,1.06862 0.0516,2.39743 l 0.33171,0.86418 h 0.30224 c 0.24326,0 0.68555,-0.2416 2.2262,-1.22659 1.79865,-1.15225 1.96082,-1.28234 2.46209,-1.90493 0.53075,-0.65046 0.54549,-0.67833 0.53812,-1.11507 0,-0.2416 -0.0663,-0.74339 -0.14743,-1.0965 -0.24326,-1.04073 -0.22852,-1.14295 0.1548,-1.48677 l 0.33172,-0.29736 0.0885,-0.91994 c 0.0516,-0.50178 0.11058,-1.43102 0.14006,-2.04431 0.0516,-1.12437 0.0442,-1.13366 -0.16217,-1.60757 -0.17692,-0.39028 -0.30224,-0.53895 -0.68556,-0.80843 -0.26537,-0.18585 -0.81824,-0.604 -1.23841,-0.92923 -0.9067,-0.71551 -1.02464,-0.78985 -2.18198,-1.20801 -0.68555,-0.2416 -1.14996,-0.34381 -1.94608,-0.42745 -1.09836,-0.1115 -1.19418,-0.15796 -0.9067,-0.49249 0.11057,-0.1208 0.21377,-0.14868 0.45704,-0.10222 0.17692,0.0372 0.64869,0.0837 1.0615,0.11152 0.73715,0.0557 0.73715,0.0557 0.86247,-0.18585 0.22114,-0.41816 0.58235,-0.33452 1.30476,0.26947 0.33909,0.28807 0.69292,0.53896 0.78137,0.56684 0.0958,0.0279 0.4939,0.0371 0.89196,0.0185 0.72242,-0.0371 0.72242,-0.0371 1.51854,-0.58541 1.02464,-0.69693 1.40059,-1.11508 1.58487,-1.74696 0.0811,-0.26948 0.30961,-1.36597 0.50127,-2.4346 0.34646,-1.86775 0.36121,-2.00713 0.36121,-3.29877 -0.007,-1.15224 -0.0442,-1.55181 -0.24327,-2.74124 -0.258,-1.53322 -0.50863,-2.2952 -1.07624,-3.24302 -1.03201,-1.70979 -1.30476,-1.9328 -2.67586,-2.14652 -0.4939,-0.0744 -0.97304,-0.17656 -1.06887,-0.22302 -0.30224,-0.14868 -0.42018,-0.41815 -0.60447,-1.39385 l -0.18429,-0.9664 0.22115,-0.39028 c 0.24326,-0.41815 0.58235,-1.73766 0.58235,-2.24874 0,-0.34382 -0.48652,-3.0293 -0.82561,-4.53465 -0.12532,-0.56684 -0.25064,-1.25447 -0.28012,-1.53324 -0.0369,-0.29735 -0.33909,-1.38456 -0.75189,-2.64831 -0.38333,-1.18013 -0.7519,-2.32309 -0.81824,-2.5554 -0.0737,-0.2323 -0.6487,-1.30092 -1.29003,-2.37883 -0.63394,-1.0872 -1.40058,-2.37883 -1.69545,-2.88062 -1.51116,-2.59256 -1.57013,-2.67619 -2.4842,-3.23373 -0.40543,-0.2416 -1.15733,-0.73409 -1.66597,-1.0872 l -0.93618,-0.64116 h -1.05412 c -1.12048,0 -1.26053,-0.0279 -2.12301,-0.40887 -0.32434,-0.14867 -0.78875,-0.26947 -1.17944,-0.29735 -0.34646,-0.0371 -0.67081,-0.10222 -0.72241,-0.14868 -0.0442,-0.0464 -0.19165,-0.49249 -0.32434,-0.98499 -0.12532,-0.49249 -0.30961,-1.0779 -0.40544,-1.29163 -0.16217,-0.34381 -2.04191,-2.61114 -2.62426,-3.1501 -0.36121,-0.34381 -1.10573,-0.52037 -1.43008,-0.35311 z m 6.369,6.49534 c 0.54549,0.16727 0.89932,0.3717 0.89932,0.53896 0,0.19514 -0.39068,0.61329 -0.65606,0.71551 -0.12531,0.0464 -0.45703,0.11151 -0.72978,0.13939 -0.43492,0.0557 -0.51601,0.0464 -0.69292,-0.13939 -0.16955,-0.16726 -0.20641,-0.26948 -0.20641,-0.62259 0,-0.57612 0.14743,-0.77126 0.58235,-0.77126 0.18429,0 0.5455,0.065 0.8035,0.13938 z m -10.82877,6.12365 c 0.0663,0.10221 -0.0295,0.31594 -0.45704,1.04074 -0.63395,1.0872 -0.81086,1.44961 -0.93619,1.91422 -0.0884,0.35311 -0.16953,0.43673 -0.258,0.26019 -0.0294,-0.0557 -0.22852,-0.24161 -0.44966,-0.41816 -0.44229,-0.3624 -0.64869,-0.74339 -0.46441,-0.89206 0.059,-0.0464 0.42018,-0.0837 0.81088,-0.0837 h 0.70766 l 0.0516,-0.86418 c 0.0369,-0.63188 0.0811,-0.88277 0.16955,-0.97569 0.16955,-0.14868 0.72241,-0.13939 0.82562,0.0186 z m -5.26328,1.60757 c 0.19167,0.16726 0.42018,0.26018 0.67819,0.28806 0.21377,0.0279 0.39069,0.0744 0.39069,0.11151 0,0.093 -1.73231,0.22302 -1.83551,0.13938 -0.11058,-0.0837 -0.1032,-0.53895 0.007,-0.67834 0.14743,-0.18584 0.44966,-0.13008 0.75926,0.13939 z m -2.410483,0.46462 c 0.891953,0.0836 0.597094,0.20443 -0.670809,0.27877 -1.046756,0.0557 -1.533275,0 -1.40796,-0.15798 0.147429,-0.17654 1.039383,-0.22301 2.078769,-0.12079 z m -3.796334,3.93995 c 0.302231,0.10221 0.427548,0.32523 0.265375,0.46461 -0.191662,0.16726 -1.319506,-0.16726 -1.319506,-0.38099 0,-0.0743 0.213775,-0.13009 0.62658,-0.16726 0.08109,-0.009 0.272747,0.0279 0.427551,0.0837 z m 4.135428,1.33809 c 0.0958,0.47391 0.0958,0.57613 0.0147,0.68763 -0.059,0.065 -0.140061,0.093 -0.184291,0.065 -0.08846,-0.0744 -0.117944,-1.18942 -0.02948,-1.29163 0.06634,-0.093 0.06634,-0.0837 0.199041,0.53895 z m 9.229149,6.03072 c 0.23589,0.28806 0.32434,0.4832 0.32434,0.66905 0,0.41815 0.31698,1.18012 0.61921,1.49606 0.27275,0.27878 0.28013,0.30665 0.53076,1.84918 0.30222,1.88634 0.33908,2.51822 0.14006,2.69477 -0.0737,0.0743 -0.22116,0.1301 -0.31698,0.1301 -0.0958,0 -1.0099,-0.53896 -2.02717,-1.18942 -1.85025,-1.18942 -1.85763,-1.18942 -2.77907,-1.39386 -0.50863,-0.12079 -1.2679,-0.26947 -1.68808,-0.33451 -0.42017,-0.0744 -0.79612,-0.17656 -0.84035,-0.23231 -0.0516,-0.0651 -0.0369,-0.21372 0.059,-0.47391 0.11057,-0.31595 0.12531,-0.44603 0.059,-0.79914 -0.11794,-0.62259 0.007,-0.76198 0.78875,-0.88278 1.69546,-0.26018 1.68071,-0.25089 3.87006,-1.51464 0.40543,-0.23231 0.78138,-0.42745 0.84035,-0.42745 0.0516,0 0.24326,0.18584 0.42018,0.40886 z" />
  </g>
</svg>
