<?xml version="1.0" encoding="UTF-8" standalone="no"?>
<svg
   xmlns:dc="http://purl.org/dc/elements/1.1/"
   xmlns:cc="http://creativecommons.org/ns#"
   xmlns:rdf="http://www.w3.org/1999/02/22-rdf-syntax-ns#"
   xmlns:svg="http://www.w3.org/2000/svg"
   xmlns="http://www.w3.org/2000/svg"
   xmlns:sodipodi="http://sodipodi.sourceforge.net/DTD/sodipodi-0.dtd"
   xmlns:inkscape="http://www.inkscape.org/namespaces/inkscape"
   sodipodi:docname="moneyIcon.svg"
   inkscape:version="1.0 (4035a4fb49, 2020-05-01)"
   id="svg8"
   version="1.1"
   viewBox="0 0 210 297"
   height="297mm"
   width="210mm">
  <defs
     id="defs2" />
  <sodipodi:namedview
     inkscape:window-maximized="1"
     inkscape:window-y="-8"
     inkscape:window-x="-8"
     inkscape:window-height="1017"
     inkscape:window-width="1920"
     showgrid="false"
     inkscape:document-rotation="0"
     inkscape:current-layer="layer1"
     inkscape:document-units="mm"
     inkscape:cy="526.72685"
     inkscape:cx="390.79385"
     inkscape:zoom="0.7"
     inkscape:pageshadow="2"
     inkscape:pageopacity="0.0"
     borderopacity="1.0"
     bordercolor="#666666"
     pagecolor="#ffffff"
     id="base" />
  <metadata
     id="metadata5">
    <rdf:RDF>
      <cc:Work
         rdf:about="">
        <dc:format>image/svg+xml</dc:format>
        <dc:type
           rdf:resource="http://purl.org/dc/dcmitype/StillImage" />
        <dc:title></dc:title>
      </cc:Work>
    </rdf:RDF>
  </metadata>
  <g
     id="layer1"
     inkscape:groupmode="layer"
     inkscape:label="Слой 1">
    <g
       style="fill:#008cff;fill-opacity:1"
       transform="matrix(0.01902719,0,0,-0.01733726,-2.6713962,228.85311)"
       fill="#000000"
       stroke="none"
       id="g841">
      <path
         style="fill:#008cff;fill-opacity:1"
         d="m 4288,9525 c -3,-3 -37,-10 -74,-16 -38,-5 -78,-13 -89,-18 -11,-4 -45,-16 -75,-27 -30,-10 -66,-24 -80,-31 -14,-7 -31,-13 -37,-13 -7,0 -13,-4 -13,-9 0,-5 -8,-11 -17,-15 -18,-5 -53,-26 -63,-36 -3,-3 -21,-13 -40,-23 -68,-36 -95,-52 -108,-64 -7,-7 -20,-13 -28,-13 -8,0 -14,-4 -14,-10 0,-5 -6,-10 -14,-10 -8,0 -16,-3 -18,-7 -1,-5 -32,-23 -68,-42 -36,-19 -92,-52 -126,-73 -34,-21 -66,-38 -73,-38 -6,0 -11,-4 -11,-10 0,-5 -6,-10 -14,-10 -8,0 -21,-6 -28,-12 -17,-16 -84,-56 -120,-71 -16,-6 -28,-15 -28,-19 0,-4 -4,-8 -10,-8 -5,0 -49,-24 -97,-53 -48,-29 -105,-61 -125,-72 -21,-11 -38,-23 -38,-27 0,-5 -4,-8 -9,-8 -5,0 -64,-32 -132,-72 -68,-39 -134,-76 -146,-82 -13,-6 -23,-14 -23,-18 0,-5 -5,-8 -12,-8 -6,0 -44,-20 -84,-45 -39,-25 -77,-45 -83,-45 -6,0 -11,-3 -11,-7 0,-5 -10,-13 -23,-19 -12,-6 -78,-43 -146,-82 -68,-40 -127,-72 -132,-72 -5,0 -9,-3 -9,-8 0,-4 -17,-16 -37,-27 -21,-11 -78,-43 -126,-72 -48,-29 -92,-53 -97,-53 -6,0 -10,-4 -10,-8 0,-4 -12,-13 -27,-19 -37,-15 -104,-55 -121,-70 -7,-7 -20,-13 -28,-13 -8,0 -14,-4 -14,-10 0,-5 -5,-10 -11,-10 -6,0 -43,-19 -82,-43 -40,-24 -97,-57 -127,-73 -30,-16 -56,-32 -58,-36 -2,-5 -10,-8 -18,-8 -8,0 -14,-4 -14,-9 0,-5 -11,-12 -25,-15 -14,-4 -25,-11 -25,-16 0,-6 -4,-10 -10,-10 -5,0 -39,-18 -75,-40 -70,-43 -151,-120 -161,-154 -4,-12 -12,-24 -18,-28 -15,-10 -21,-4118 -6,-4118 5,0 43,-20 83,-45 41,-25 80,-45 86,-45 6,0 11,-4 11,-10 0,-5 7,-10 15,-10 8,0 15,-4 15,-10 0,-5 6,-10 14,-10 8,0 21,-6 28,-12 13,-13 40,-29 108,-65 19,-10 37,-20 40,-23 3,-3 19,-12 35,-21 17,-9 75,-42 130,-74 55,-32 123,-71 150,-87 28,-16 62,-34 77,-41 16,-6 28,-15 28,-19 0,-4 5,-8 10,-8 6,0 50,-25 99,-55 49,-30 94,-55 100,-55 6,0 11,-4 11,-9 0,-5 8,-11 18,-14 9,-3 40,-19 67,-36 53,-31 98,-57 155,-87 19,-11 37,-21 40,-24 5,-5 41,-26 100,-57 19,-10 37,-20 40,-23 7,-7 43,-29 60,-37 8,-4 42,-23 75,-43 33,-19 78,-44 100,-55 22,-11 42,-23 43,-27 2,-5 10,-8 18,-8 8,0 14,-4 14,-10 0,-5 6,-10 14,-10 8,0 21,-6 28,-13 17,-15 84,-55 121,-70 15,-6 27,-15 27,-19 0,-4 4,-8 10,-8 5,0 38,-17 72,-38 35,-21 88,-52 118,-69 30,-17 80,-45 110,-62 30,-18 66,-37 80,-44 14,-6 27,-14 30,-17 10,-10 45,-31 63,-36 9,-4 17,-10 17,-15 0,-5 5,-9 11,-9 7,0 40,-18 75,-40 35,-22 66,-40 69,-40 2,0 26,-13 52,-29 80,-49 157,-92 186,-104 15,-6 27,-15 27,-19 0,-4 4,-8 10,-8 5,0 50,-25 100,-55 50,-30 95,-55 100,-55 6,0 10,-4 10,-8 0,-4 12,-13 28,-19 30,-13 115,-61 182,-103 54,-34 146,-86 180,-103 14,-6 27,-14 30,-17 7,-7 42,-29 60,-37 8,-4 43,-24 78,-45 34,-21 64,-38 66,-38 2,0 59,-32 127,-72 68,-39 134,-76 146,-82 13,-6 23,-14 23,-18 0,-5 5,-8 11,-8 6,0 51,-25 100,-55 49,-30 93,-55 98,-55 5,0 11,-3 13,-7 3,-8 19,-17 133,-77 33,-17 62,-34 63,-38 2,-5 8,-8 12,-8 5,0 50,-25 100,-55 50,-30 95,-55 100,-55 6,0 10,-4 10,-10 0,-5 5,-10 12,-10 6,0 44,-20 84,-45 39,-25 77,-45 83,-45 6,0 11,-4 11,-9 0,-5 8,-11 18,-14 9,-4 35,-17 57,-29 67,-39 159,-92 180,-105 11,-7 27,-15 35,-19 8,-4 17,-10 20,-13 5,-6 80,-48 117,-65 13,-6 23,-14 23,-18 0,-5 5,-8 11,-8 11,0 239,-136 249,-149 3,-3 21,-13 40,-22 19,-9 48,-22 64,-30 21,-10 72,-14 190,-13 155,0 163,1 211,27 28,15 56,27 63,27 6,0 12,4 12,9 0,5 8,11 18,15 9,3 26,11 37,18 27,18 81,50 135,80 25,14 90,51 145,83 55,32 114,65 130,74 17,9 32,19 33,24 2,4 10,7 17,7 8,0 20,6 27,13 17,15 84,55 121,70 15,6 27,15 27,19 0,4 7,8 15,8 8,0 15,4 15,10 0,5 11,12 25,16 14,3 25,10 25,15 0,5 5,9 11,9 7,0 39,17 73,38 34,22 88,54 121,72 131,72 152,85 213,122 34,21 67,38 72,38 6,0 10,4 10,8 0,4 12,13 28,19 36,15 103,55 120,71 7,6 20,12 28,12 8,0 14,4 14,9 0,5 8,11 18,14 9,3 67,36 127,72 61,36 122,71 138,78 15,6 27,15 27,19 0,4 6,8 14,8 8,0 21,6 28,13 17,15 84,55 121,70 15,6 27,15 27,19 0,4 4,8 10,8 5,0 50,25 100,55 50,30 93,55 96,55 3,0 29,15 57,34 51,32 124,74 197,112 19,11 37,21 40,24 7,7 43,29 60,37 8,4 17,9 20,12 3,3 21,14 40,24 68,36 95,52 108,65 7,6 20,12 28,12 8,0 14,4 14,8 0,4 12,13 28,19 15,7 54,28 87,48 33,19 72,41 88,47 15,7 27,15 27,19 0,4 11,10 25,13 14,4 25,11 25,16 0,6 6,10 14,10 8,0 16,3 18,8 2,4 19,15 38,25 19,10 44,25 55,33 20,15 20,27 20,2072 0,2002 -1,2058 -19,2097 -11,22 -25,45 -32,53 -8,7 -19,21 -26,30 -18,24 -93,82 -107,82 -6,0 -11,5 -11,10 0,6 -5,10 -10,10 -6,0 -41,17 -78,39 -37,21 -83,47 -102,57 -19,10 -37,21 -40,24 -7,7 -43,29 -60,37 -8,4 -43,24 -78,45 -34,21 -67,38 -72,38 -6,0 -10,5 -10,10 0,6 -5,10 -11,10 -6,0 -44,19 -83,43 -39,24 -87,51 -106,60 -38,19 -72,39 -80,47 -3,3 -20,13 -38,23 -17,9 -47,25 -64,35 -18,9 -35,20 -38,23 -3,4 -15,9 -27,13 -13,4 -23,12 -23,17 0,5 -7,9 -15,9 -8,0 -15,4 -15,8 0,4 -12,13 -27,19 -16,7 -53,26 -83,43 -30,18 -80,46 -110,63 -30,16 -82,47 -116,69 -34,21 -66,38 -73,38 -6,0 -11,5 -11,10 0,6 -5,10 -12,10 -6,0 -44,20 -84,45 -39,25 -77,45 -83,45 -6,0 -11,4 -11,8 0,4 -12,13 -27,19 -16,6 -41,20 -58,30 -170,102 -206,123 -214,123 -5,0 -11,3 -13,8 -1,4 -18,15 -35,25 -18,9 -48,25 -65,35 -18,9 -34,20 -36,25 -2,4 -10,7 -17,7 -8,0 -20,6 -27,13 -7,7 -24,18 -38,24 -31,15 -131,72 -145,83 -9,7 -77,45 -155,86 -19,11 -40,25 -48,32 -7,6 -20,12 -28,12 -8,0 -14,5 -14,10 0,6 -7,10 -15,10 -8,0 -15,4 -15,8 0,4 -12,13 -27,19 -37,15 -104,55 -121,71 -7,6 -20,12 -28,12 -8,0 -14,4 -14,8 0,4 -12,13 -27,20 -16,6 -55,28 -88,47 -33,20 -72,41 -87,48 -16,6 -28,15 -28,19 0,4 -6,8 -14,8 -8,0 -21,6 -28,13 -17,15 -84,55 -120,70 -16,6 -28,15 -28,19 0,4 -5,8 -10,8 -6,0 -50,24 -98,53 -78,47 -110,65 -177,101 -11,6 -22,13 -25,16 -3,3 -21,14 -40,24 -19,10 -48,26 -65,35 -16,9 -35,22 -43,29 -7,6 -19,12 -27,12 -7,0 -15,3 -17,8 -1,4 -18,15 -35,25 -18,9 -48,25 -65,35 -18,9 -35,19 -38,22 -3,3 -14,10 -25,16 -77,42 -127,70 -176,100 -31,19 -62,34 -68,34 -6,0 -11,5 -11,10 0,6 -7,10 -15,10 -8,0 -15,5 -15,10 0,6 -6,10 -14,10 -8,0 -21,6 -28,13 -13,12 -40,28 -108,64 -19,10 -37,20 -40,23 -3,3 -19,12 -35,21 -17,9 -75,42 -130,74 -55,32 -122,71 -150,87 -27,16 -62,34 -77,41 -16,6 -28,15 -28,19 0,4 -5,8 -10,8 -6,0 -50,25 -99,55 -49,30 -94,55 -100,55 -6,0 -11,4 -11,9 0,5 -8,11 -17,14 -10,3 -40,19 -68,36 -142,84 -280,151 -313,151 -10,0 -22,4 -28,9 -17,16 -157,33 -309,38 -83,2 -153,1 -157,-2 z m 832,-735 c 25,-16 51,-30 58,-30 6,0 12,-4 12,-10 0,-5 4,-10 10,-10 5,0 50,-25 100,-55 50,-30 97,-55 105,-55 8,0 15,-4 15,-9 0,-5 10,-13 23,-17 12,-4 24,-9 27,-13 7,-9 81,-51 113,-64 15,-6 27,-15 27,-19 0,-4 4,-8 10,-8 5,0 50,-25 100,-55 50,-30 95,-55 100,-55 6,0 10,-4 10,-8 0,-4 12,-13 28,-19 15,-7 54,-28 87,-48 33,-20 71,-41 85,-48 14,-6 31,-17 38,-24 7,-7 20,-13 28,-13 8,0 14,-3 14,-7 0,-5 10,-13 23,-19 33,-15 111,-58 117,-64 3,-3 14,-10 25,-16 11,-6 63,-36 115,-66 98,-56 179,-102 239,-134 19,-11 44,-27 55,-36 11,-10 29,-21 40,-24 12,-4 23,-9 26,-13 3,-3 19,-13 35,-22 86,-46 100,-55 103,-61 2,-5 8,-8 13,-8 5,0 26,-11 47,-23 37,-24 116,-69 182,-103 19,-11 37,-21 40,-24 5,-5 41,-26 100,-57 19,-10 37,-21 40,-24 3,-3 12,-8 20,-12 8,-4 24,-13 35,-19 60,-39 127,-78 185,-109 36,-19 67,-37 68,-41 2,-5 10,-8 17,-8 8,0 20,-6 27,-12 17,-16 84,-56 121,-71 15,-6 27,-15 27,-19 0,-4 4,-8 10,-8 5,0 38,-17 72,-38 35,-21 88,-52 118,-69 30,-17 80,-45 110,-63 30,-17 67,-36 83,-43 15,-6 27,-15 27,-19 0,-4 7,-8 15,-8 8,0 15,-4 15,-10 0,-5 6,-10 14,-10 8,0 21,-6 28,-12 13,-12 29,-22 110,-65 18,-10 35,-20 38,-23 5,-5 24,-16 110,-62 97,-53 115,-63 128,-75 7,-7 20,-13 28,-13 8,0 14,-3 14,-7 0,-5 10,-13 23,-19 33,-15 111,-58 117,-64 8,-8 40,-27 88,-52 56,-29 70,-46 46,-54 -136,-48 -266,-149 -308,-239 -10,-22 -23,-48 -27,-57 -12,-23 -12,-135 0,-142 4,-3 11,-18 15,-33 9,-42 69,-117 130,-162 30,-23 59,-41 65,-41 5,0 11,-3 13,-7 3,-9 82,-48 117,-58 26,-8 20,-17 -30,-43 -71,-38 -104,-57 -117,-69 -7,-7 -20,-13 -28,-13 -8,0 -14,-4 -14,-10 0,-5 -7,-10 -15,-10 -8,0 -15,-4 -15,-8 0,-4 -12,-13 -27,-19 -37,-15 -104,-55 -121,-70 -7,-7 -20,-13 -28,-13 -8,0 -14,-4 -14,-8 0,-4 -12,-13 -27,-19 -16,-7 -55,-28 -88,-48 -33,-19 -72,-41 -87,-47 -16,-7 -28,-16 -28,-20 0,-4 -6,-8 -14,-8 -8,0 -21,-6 -28,-12 -17,-16 -84,-56 -120,-71 -16,-6 -28,-15 -28,-19 0,-4 -5,-8 -10,-8 -6,0 -50,-25 -99,-55 -49,-30 -94,-55 -100,-55 -6,0 -11,-4 -11,-10 0,-5 -4,-10 -10,-10 -5,0 -31,-13 -57,-29 -80,-49 -157,-92 -185,-104 -16,-6 -28,-15 -28,-19 0,-4 -4,-8 -10,-8 -5,0 -50,-25 -100,-55 -50,-30 -95,-55 -100,-55 -4,0 -10,-3 -12,-7 -6,-15 -71,-44 -77,-35 -12,17 -104,83 -140,99 -94,42 -174,70 -246,84 -129,26 -547,12 -590,-21 -5,-4 -22,-10 -38,-14 -36,-9 -132,-53 -179,-82 -21,-13 -45,-24 -53,-24 -16,0 -94,41 -167,87 -21,12 -42,23 -47,23 -5,0 -11,3 -13,8 -1,4 -18,15 -35,25 -18,9 -48,25 -65,35 -18,9 -34,20 -36,25 -2,4 -10,7 -17,7 -8,0 -20,6 -27,13 -13,11 -29,21 -110,65 -18,9 -35,19 -38,22 -3,3 -14,10 -25,16 -11,6 -76,43 -144,82 -68,40 -127,72 -132,72 -5,0 -9,4 -9,8 0,4 -12,13 -27,19 -37,15 -104,55 -121,71 -7,6 -20,12 -28,12 -8,0 -14,4 -14,8 0,4 -12,13 -27,20 -16,6 -55,28 -88,47 -33,20 -72,41 -87,48 -16,6 -28,14 -28,18 0,4 -11,10 -25,13 -14,4 -25,11 -25,16 0,6 -6,10 -14,10 -8,0 -16,3 -18,8 -1,4 -18,15 -35,25 -18,9 -48,25 -65,35 -18,9 -34,20 -36,25 -2,4 -10,7 -17,7 -8,0 -20,6 -27,13 -13,11 -28,20 -124,72 -22,13 -59,35 -82,49 -23,14 -44,26 -46,26 -3,0 -39,20 -79,45 -41,25 -80,45 -86,45 -6,0 -11,3 -11,8 0,4 -10,12 -23,18 -48,22 -112,60 -131,77 -11,10 -31,20 -43,23 -13,4 -23,10 -23,15 0,5 -6,9 -13,9 -7,0 -28,10 -47,23 -19,13 -64,39 -100,58 -36,19 -67,37 -70,40 -5,6 -75,46 -150,85 -19,11 -36,22 -38,27 -2,4 -8,7 -12,7 -5,0 -50,25 -100,55 -50,30 -93,55 -96,55 -3,0 -28,15 -57,33 -29,18 -59,36 -67,40 -8,4 -37,21 -65,38 -27,17 -62,35 -77,42 -16,6 -28,15 -28,19 0,4 -4,8 -10,8 -5,0 -50,25 -100,55 -50,30 -95,55 -100,55 -4,0 -10,3 -12,8 -1,4 -16,14 -33,23 -107,55 -160,85 -163,92 -2,4 -8,7 -13,7 -5,0 -49,25 -98,55 -49,30 -94,55 -100,55 -6,0 -11,4 -11,9 0,5 -8,12 -17,15 -33,13 -63,31 -63,38 0,5 -5,8 -11,8 -6,0 -31,12 -55,26 l -45,27 58,29 c 31,16 64,35 73,43 9,8 21,15 26,15 19,1 111,107 137,158 21,42 27,68 27,118 0,35 -4,72 -9,82 -34,70 -50,93 -95,138 -59,58 -141,114 -168,114 -10,0 -18,5 -18,10 0,6 -8,10 -17,10 -14,1 -11,6 12,25 17,14 33,25 37,25 4,0 41,20 81,45 41,25 80,45 86,45 6,0 11,5 11,10 0,6 4,10 10,10 5,0 50,25 100,55 50,30 95,55 100,55 6,0 10,4 10,8 0,4 12,13 28,19 15,7 50,25 77,42 61,36 122,71 152,85 13,6 23,14 23,19 0,4 5,7 11,7 6,0 51,25 100,55 49,30 93,55 99,55 5,0 10,4 10,8 0,4 12,13 28,19 36,15 103,55 120,71 7,6 19,12 27,12 7,0 15,3 17,8 2,4 17,14 33,23 17,9 74,41 127,72 54,32 102,57 108,57 5,0 10,3 10,8 0,4 10,12 23,18 49,23 112,59 115,67 2,4 10,7 18,7 8,0 14,5 14,10 0,17 35,11 58,-10 30,-28 146,-88 196,-101 23,-6 50,-15 61,-20 96,-40 411,-53 567,-23 46,8 90,19 98,23 9,5 30,12 47,15 18,4 55,18 83,32 27,13 53,24 57,24 5,0 28,18 52,40 24,22 49,40 55,40 6,0 31,-14 56,-30 z M 1480,7030 c 3,-4 14,-10 26,-14 11,-3 29,-14 40,-24 11,-9 36,-25 55,-35 70,-38 94,-52 99,-58 3,-4 15,-9 28,-13 12,-4 22,-12 22,-17 0,-5 6,-9 13,-9 7,0 55,-25 106,-55 51,-30 97,-55 101,-55 5,0 10,-3 12,-7 2,-5 19,-17 38,-27 19,-10 48,-26 65,-35 16,-9 35,-22 43,-28 7,-7 19,-13 27,-13 7,0 15,-3 17,-7 2,-5 19,-17 38,-27 19,-11 53,-29 76,-41 22,-13 58,-34 80,-47 21,-14 46,-27 54,-31 17,-8 53,-30 60,-37 3,-3 20,-13 38,-22 17,-10 47,-26 65,-35 17,-10 34,-21 35,-25 2,-5 10,-8 17,-8 8,0 20,-6 27,-12 13,-12 29,-22 110,-65 18,-10 35,-20 38,-23 3,-3 16,-11 30,-18 14,-6 52,-28 85,-47 33,-20 71,-41 85,-48 14,-6 31,-17 38,-24 7,-7 20,-13 28,-13 8,0 14,-4 14,-10 0,-5 6,-10 14,-10 8,0 16,-3 18,-7 3,-8 66,-44 115,-67 13,-6 23,-14 23,-18 0,-5 6,-8 14,-8 8,0 21,-6 28,-12 13,-12 29,-22 110,-65 18,-10 35,-20 38,-23 3,-3 14,-10 25,-16 11,-6 45,-25 75,-41 30,-17 71,-39 90,-49 19,-11 40,-25 48,-31 7,-7 20,-13 28,-13 8,0 14,-3 14,-7 0,-5 10,-13 23,-19 48,-22 112,-60 131,-77 11,-10 31,-20 43,-23 13,-4 23,-9 23,-13 0,-4 12,-12 28,-18 15,-7 54,-28 87,-48 33,-19 72,-41 88,-47 15,-7 27,-16 27,-20 0,-4 6,-8 14,-8 8,0 21,-6 28,-12 17,-16 84,-56 121,-71 15,-6 27,-15 27,-19 0,-4 4,-8 9,-8 5,0 64,-32 132,-72 68,-39 134,-76 146,-82 13,-6 23,-14 23,-18 0,-5 5,-8 11,-8 6,0 44,-20 83,-45 40,-25 78,-45 84,-45 7,0 12,-3 12,-7 0,-5 10,-13 23,-19 49,-23 112,-59 115,-66 2,-5 8,-8 13,-8 5,0 30,-13 56,-29 80,-49 157,-92 186,-104 15,-6 27,-15 27,-19 0,-4 5,-8 10,-8 6,0 50,-25 99,-55 49,-30 94,-55 100,-55 6,0 11,-3 11,-7 0,-5 10,-13 23,-19 12,-6 65,-35 117,-66 102,-59 184,-105 240,-134 19,-11 37,-22 40,-25 3,-3 12,-8 20,-12 17,-8 53,-30 60,-37 3,-3 21,-13 40,-24 76,-40 146,-80 170,-96 34,-23 158,-80 175,-80 8,0 16,-4 19,-9 4,-5 25,-12 48,-16 82,-14 78,-2 78,-258 v -228 l -22,7 c -13,3 -24,11 -26,15 -2,5 -10,9 -17,9 -8,0 -20,6 -27,13 -17,15 -84,55 -120,70 -16,6 -28,15 -28,19 0,4 -7,8 -15,8 -8,0 -15,5 -15,10 0,6 -6,10 -14,10 -8,0 -21,6 -28,13 -7,7 -24,18 -38,24 -31,15 -131,72 -145,83 -9,7 -77,45 -155,86 -19,11 -40,25 -48,32 -7,6 -19,12 -27,12 -7,0 -15,3 -17,8 -1,4 -18,15 -35,25 -18,9 -48,25 -65,35 -18,9 -34,20 -36,25 -2,4 -8,7 -13,7 -8,0 -44,21 -214,123 -16,10 -42,24 -57,30 -16,6 -28,15 -28,19 0,4 -5,8 -12,8 -6,0 -44,20 -84,45 -39,25 -77,45 -83,45 -6,0 -11,5 -11,10 0,6 -5,10 -11,10 -6,0 -51,25 -100,55 -49,30 -96,55 -104,55 -8,0 -15,5 -15,10 0,6 -6,10 -14,10 -8,0 -21,6 -28,13 -17,15 -84,55 -120,70 -16,6 -28,15 -28,19 0,4 -7,8 -15,8 -8,0 -15,5 -15,10 0,6 -6,10 -14,10 -8,0 -21,6 -28,13 -13,11 -29,21 -110,65 -18,9 -35,19 -38,22 -3,3 -14,10 -25,16 -11,6 -45,25 -75,41 -30,17 -71,39 -90,49 -19,11 -40,25 -48,32 -7,6 -20,12 -28,12 -8,0 -14,3 -14,8 0,4 -10,12 -23,18 -49,23 -112,59 -115,67 -2,4 -8,7 -13,7 -5,0 -39,19 -76,42 -63,38 -87,51 -183,104 -19,10 -36,22 -38,27 -2,4 -10,7 -17,7 -8,0 -20,6 -27,13 -17,15 -84,55 -120,70 -16,6 -28,15 -28,19 0,4 -5,8 -11,8 -7,0 -39,17 -73,38 -34,22 -81,50 -106,64 -25,13 -72,40 -105,58 -33,18 -77,44 -97,57 -21,12 -42,23 -48,23 -5,0 -10,4 -10,9 0,5 -10,13 -22,17 -13,4 -25,9 -28,13 -5,6 -23,16 -105,60 -16,9 -32,18 -35,21 -3,3 -14,10 -26,16 -11,7 -68,39 -126,73 -59,33 -111,61 -117,61 -6,0 -11,3 -11,8 0,4 -10,12 -23,18 -33,15 -111,58 -117,64 -10,10 -46,31 -62,36 -10,4 -18,10 -18,15 0,5 -5,9 -11,9 -7,0 -40,18 -75,40 -35,22 -68,40 -73,40 -4,0 -14,7 -21,15 -7,8 -21,15 -31,15 -11,0 -19,5 -19,10 0,6 -6,10 -14,10 -8,0 -21,6 -28,13 -17,15 -84,55 -120,70 -16,6 -28,15 -28,19 0,4 -4,8 -10,8 -5,0 -50,25 -100,55 -50,30 -95,55 -100,55 -4,0 -10,3 -12,8 -1,4 -21,16 -43,27 -22,11 -68,37 -103,57 -34,21 -67,38 -72,38 -6,0 -10,4 -10,10 0,5 -11,12 -25,16 -14,3 -25,10 -25,15 0,5 -4,9 -10,9 -5,0 -30,12 -55,27 l -45,28 v 203 203 l 23,-7 c 12,-4 24,-10 27,-14 z m 84,-990 c 5,0 118,-65 156,-90 8,-6 22,-13 30,-17 8,-4 17,-9 20,-12 3,-3 21,-14 40,-24 60,-32 95,-52 100,-57 3,-3 16,-11 30,-17 14,-7 48,-26 75,-42 28,-16 67,-39 87,-50 65,-36 83,-46 88,-51 5,-5 26,-17 105,-59 16,-9 32,-18 35,-21 7,-7 43,-29 60,-37 8,-4 17,-9 20,-12 3,-4 16,-12 30,-18 26,-13 49,-26 249,-141 68,-40 127,-72 132,-72 5,0 9,-4 9,-8 0,-4 12,-13 28,-19 36,-15 103,-55 120,-70 7,-7 20,-13 28,-13 8,0 14,-4 14,-10 0,-5 7,-10 15,-10 8,0 15,-4 15,-10 0,-5 5,-10 10,-10 9,0 142,-73 215,-117 11,-7 27,-15 35,-19 8,-4 43,-25 78,-46 34,-21 67,-38 72,-38 6,0 10,-4 10,-8 0,-4 12,-13 28,-19 28,-12 105,-55 185,-104 26,-16 52,-29 57,-29 6,0 10,-4 10,-10 0,-5 5,-10 11,-10 6,0 51,-25 100,-55 49,-30 93,-55 99,-55 5,0 10,-4 10,-8 0,-4 12,-13 28,-19 15,-7 50,-25 77,-41 237,-137 298,-172 305,-172 5,0 10,-3 12,-7 2,-5 18,-16 36,-25 81,-44 97,-54 110,-65 7,-7 20,-13 28,-13 8,0 14,-4 14,-10 0,-5 7,-10 15,-10 8,0 15,-4 15,-8 0,-4 12,-13 28,-19 28,-12 105,-55 185,-104 26,-16 51,-29 56,-29 5,0 11,-3 13,-7 3,-8 66,-44 115,-67 13,-6 23,-14 23,-18 0,-5 5,-8 12,-8 6,0 44,-20 84,-45 39,-25 76,-45 82,-45 6,0 12,-3 14,-7 2,-5 17,-15 33,-24 17,-9 81,-46 144,-82 62,-37 117,-67 121,-67 5,0 10,-3 12,-7 3,-8 66,-44 115,-67 13,-6 23,-14 23,-18 0,-5 6,-8 14,-8 8,0 21,-6 28,-12 13,-13 31,-23 128,-76 86,-46 105,-57 110,-62 3,-3 20,-13 38,-22 81,-44 97,-54 110,-65 7,-7 20,-13 28,-13 8,0 14,-4 14,-10 0,-5 7,-10 15,-10 8,0 15,-4 15,-8 0,-4 12,-13 28,-19 34,-15 75,-38 230,-132 l 122,-74 v -208 c 0,-115 -2,-209 -5,-209 -7,0 -60,24 -65,30 -3,3 -16,11 -30,18 -14,6 -52,28 -85,47 -33,20 -72,41 -87,48 -16,6 -28,14 -28,18 0,4 -11,10 -25,13 -14,4 -25,11 -25,16 0,6 -6,10 -14,10 -8,0 -16,3 -18,8 -3,7 -66,43 -115,66 -13,6 -23,14 -23,19 0,4 -6,7 -14,7 -8,0 -21,6 -28,13 -8,6 -29,20 -48,31 -19,10 -60,32 -90,49 -30,16 -64,35 -75,41 -11,6 -22,13 -25,16 -3,3 -20,13 -38,23 -81,43 -97,53 -110,65 -7,6 -19,12 -27,12 -7,0 -15,3 -17,8 -1,4 -18,15 -35,25 -18,9 -48,25 -65,35 -18,9 -35,20 -38,23 -3,3 -12,8 -20,12 -8,3 -37,20 -65,37 -27,16 -57,33 -65,37 -8,3 -42,24 -76,45 -34,21 -66,38 -73,38 -6,0 -11,5 -11,10 0,6 -5,10 -11,10 -6,0 -44,20 -83,45 -40,25 -78,45 -84,45 -7,0 -12,4 -12,8 0,4 -12,13 -27,20 -16,6 -55,28 -88,47 -33,20 -72,41 -87,48 -16,6 -28,14 -28,18 0,4 -11,10 -25,13 -14,4 -25,11 -25,16 0,6 -6,10 -14,10 -8,0 -16,3 -18,8 -1,4 -18,15 -35,25 -18,9 -48,25 -65,35 -18,9 -34,20 -36,25 -2,4 -10,7 -17,7 -8,0 -20,6 -27,13 -7,7 -24,18 -38,24 -31,15 -131,72 -145,83 -9,7 -77,45 -155,86 -19,11 -40,25 -48,32 -7,6 -19,12 -27,12 -7,0 -15,3 -17,8 -1,4 -18,15 -35,25 -18,9 -48,25 -65,35 -18,9 -34,20 -36,25 -2,4 -10,7 -18,7 -8,0 -14,4 -14,10 0,5 -11,12 -25,16 -14,3 -25,9 -25,13 0,4 -12,12 -27,19 -16,6 -55,28 -88,47 -33,20 -72,41 -87,48 -16,6 -28,15 -28,19 0,4 -5,8 -11,8 -6,0 -44,20 -83,45 -40,25 -78,45 -84,45 -7,0 -12,5 -12,10 0,6 -5,10 -11,10 -6,0 -51,25 -100,55 -49,30 -96,55 -104,55 -8,0 -15,4 -15,9 0,5 -11,12 -25,15 -14,4 -25,11 -25,16 0,6 -6,10 -14,10 -8,0 -16,3 -18,8 -1,4 -18,15 -35,25 -82,43 -98,53 -111,65 -7,6 -19,12 -27,12 -7,0 -15,3 -17,8 -1,4 -18,15 -35,25 -18,9 -48,25 -65,35 -18,9 -35,19 -38,22 -3,3 -14,10 -25,16 -11,6 -45,25 -75,41 -30,17 -71,39 -90,49 -19,11 -40,25 -48,32 -7,6 -20,12 -28,12 -8,0 -14,3 -14,8 0,4 -10,12 -23,18 -48,22 -112,60 -131,77 -11,10 -31,20 -43,23 -13,4 -23,9 -23,13 0,4 -12,12 -27,19 -16,6 -55,28 -88,47 -33,20 -72,41 -87,48 -16,6 -28,15 -28,19 0,4 -6,8 -14,8 -8,0 -21,6 -28,13 -17,15 -84,55 -120,70 -16,6 -28,15 -28,19 0,4 -5,8 -11,8 -6,0 -51,25 -100,55 -49,30 -91,55 -94,55 -3,0 -31,16 -61,35 -30,19 -59,35 -64,35 -24,0 -30,49 -30,238 0,109 3,201 6,205 3,3 30,-10 59,-29 30,-19 56,-34 59,-34 z m 8246,-569 c 0,-167 -2,-197 -17,-213 -9,-10 -22,-18 -30,-18 -7,0 -13,-4 -13,-10 0,-5 -5,-10 -11,-10 -6,0 -51,-25 -100,-55 -49,-30 -93,-55 -99,-55 -5,0 -10,-4 -10,-10 0,-5 -5,-10 -12,-10 -6,0 -44,-20 -84,-45 -39,-25 -77,-45 -83,-45 -6,0 -11,-3 -11,-7 0,-5 -10,-13 -23,-19 -12,-6 -78,-43 -146,-82 -68,-40 -125,-72 -127,-72 -2,0 -44,-25 -93,-55 -49,-30 -94,-55 -100,-55 -6,0 -11,-4 -11,-9 0,-5 -8,-11 -17,-15 -18,-5 -53,-26 -63,-36 -3,-3 -21,-13 -40,-23 -68,-36 -95,-52 -108,-64 -7,-7 -19,-13 -27,-13 -7,0 -15,-3 -17,-7 -1,-5 -21,-17 -43,-28 -22,-11 -42,-22 -45,-25 -3,-3 -20,-13 -38,-22 -81,-44 -97,-54 -110,-65 -7,-7 -20,-13 -28,-13 -8,0 -14,-4 -14,-10 0,-5 -5,-10 -10,-10 -6,0 -50,-25 -99,-55 -49,-30 -94,-55 -100,-55 -6,0 -11,-4 -11,-9 0,-5 -8,-11 -17,-15 -10,-3 -25,-10 -33,-15 -31,-21 -151,-91 -155,-91 -3,0 -34,-18 -70,-40 -36,-22 -69,-40 -74,-40 -5,0 -11,-3 -13,-7 -1,-5 -18,-16 -35,-25 -18,-10 -48,-26 -65,-35 -18,-10 -34,-21 -36,-25 -2,-5 -10,-8 -17,-8 -8,0 -20,-6 -27,-12 -8,-7 -28,-21 -46,-30 -18,-10 -46,-26 -64,-35 -17,-10 -41,-26 -52,-36 -11,-10 -31,-20 -43,-23 -13,-4 -23,-10 -23,-14 0,-4 -8,-10 -17,-13 -19,-6 -90,-46 -184,-103 -95,-57 -90,-71 -87,219 l 3,252 35,3 c 19,2 39,8 44,13 6,5 20,9 33,9 52,0 243,84 291,128 7,6 20,12 28,12 8,0 14,5 14,10 0,6 4,10 10,10 5,0 38,17 72,38 35,21 70,41 78,45 8,4 24,13 35,19 32,21 86,53 150,88 33,18 74,42 90,52 17,10 37,21 45,25 8,3 17,9 20,12 3,3 19,13 35,22 82,44 100,54 105,60 3,4 14,9 26,13 11,3 29,14 40,24 11,9 36,25 55,36 87,47 144,80 149,85 3,4 16,12 30,19 14,6 52,28 85,47 33,20 72,41 88,47 15,7 27,16 27,20 0,4 6,8 14,8 8,0 21,6 28,13 17,15 84,55 121,70 15,6 27,15 27,19 0,4 5,8 10,8 9,0 44,20 215,123 17,10 42,24 58,30 15,6 27,15 27,19 0,4 6,8 14,8 8,0 21,6 28,13 17,15 84,55 121,70 15,6 27,15 27,19 0,4 4,8 10,8 5,0 50,25 100,55 50,30 92,55 94,55 2,0 55,30 117,66 63,37 128,74 144,83 17,9 32,20 34,25 13,31 21,-45 21,-213 z M 1548,5093 c 7,-7 19,-13 27,-13 7,0 15,-3 17,-7 2,-5 18,-16 36,-25 17,-10 47,-26 64,-35 18,-10 35,-20 38,-23 3,-3 23,-14 45,-25 22,-11 42,-23 43,-27 2,-5 10,-8 17,-8 8,0 20,-6 27,-12 17,-16 84,-56 121,-71 15,-6 27,-15 27,-19 0,-4 5,-8 10,-8 6,0 50,-25 99,-55 49,-30 94,-55 100,-55 6,0 11,-4 11,-9 0,-5 8,-11 18,-14 18,-6 89,-46 183,-103 31,-19 62,-34 68,-34 6,0 11,-4 11,-10 0,-5 4,-10 10,-10 5,0 38,-17 72,-38 35,-21 70,-41 78,-45 8,-4 22,-11 30,-17 35,-24 243,-140 250,-140 5,0 10,-4 12,-9 3,-7 55,-38 148,-87 19,-11 37,-22 38,-26 2,-5 8,-8 12,-8 5,0 50,-25 100,-55 50,-30 92,-55 94,-55 2,0 59,-32 127,-72 68,-39 134,-76 146,-82 13,-6 23,-14 23,-18 0,-5 5,-8 11,-8 6,0 51,-25 100,-55 49,-30 93,-55 98,-55 5,0 11,-3 13,-7 3,-8 19,-17 133,-77 33,-17 62,-34 63,-38 2,-5 8,-8 12,-8 5,0 50,-25 100,-55 50,-30 95,-55 100,-55 6,0 10,-4 10,-10 0,-5 5,-10 12,-10 6,0 44,-20 84,-45 39,-25 77,-45 83,-45 6,0 11,-4 11,-9 0,-5 8,-11 18,-14 19,-7 89,-46 200,-113 40,-24 77,-44 82,-44 4,0 10,-3 12,-7 3,-8 66,-44 115,-67 13,-6 23,-14 23,-18 0,-5 5,-8 10,-8 6,0 54,-25 108,-57 53,-31 110,-63 127,-72 16,-9 32,-19 35,-22 3,-4 14,-9 26,-13 11,-3 29,-14 40,-24 19,-16 36,-26 117,-69 17,-10 34,-21 35,-25 2,-5 8,-8 14,-8 6,0 44,-20 85,-45 40,-25 76,-45 79,-45 2,0 23,-12 46,-26 53,-34 136,-81 168,-97 14,-6 31,-17 38,-24 7,-7 19,-13 27,-13 7,0 15,-3 17,-7 2,-5 18,-16 36,-26 17,-9 47,-25 65,-35 17,-9 34,-20 35,-24 2,-5 10,-8 18,-8 8,0 14,-4 14,-10 0,-5 11,-12 25,-16 14,-3 25,-9 25,-13 0,-4 12,-12 28,-19 15,-6 54,-28 87,-47 33,-20 72,-41 88,-48 15,-6 27,-15 27,-19 0,-4 6,-8 14,-8 8,0 21,-6 28,-13 7,-7 20,-16 28,-20 8,-4 24,-13 35,-19 10,-7 36,-23 57,-36 l 38,-22 v -215 c 0,-118 -3,-215 -6,-215 -4,0 -32,15 -63,34 -49,30 -99,58 -176,100 -11,6 -22,13 -25,16 -3,3 -20,13 -38,23 -17,9 -47,25 -64,35 -18,9 -35,20 -38,23 -3,4 -15,9 -27,13 -13,4 -23,12 -23,17 0,5 -7,9 -15,9 -8,0 -15,4 -15,8 0,4 -12,13 -27,19 -16,7 -53,26 -83,43 -30,18 -80,46 -110,63 -30,17 -83,48 -118,69 -34,21 -67,38 -72,38 -6,0 -10,4 -10,8 0,4 -12,13 -27,19 -37,15 -104,55 -121,71 -7,6 -19,12 -27,12 -7,0 -15,3 -17,8 -1,4 -32,22 -68,41 -36,19 -87,49 -115,66 -27,17 -57,35 -65,38 -17,8 -52,29 -60,37 -6,6 -84,49 -117,64 -13,6 -23,14 -23,19 0,4 -5,7 -11,7 -6,0 -37,15 -68,34 -49,30 -99,58 -176,100 -11,6 -22,13 -25,16 -3,3 -20,13 -38,23 -17,9 -47,25 -64,35 -18,9 -35,20 -38,23 -3,4 -15,9 -27,13 -13,4 -23,12 -23,17 0,5 -7,9 -15,9 -8,0 -15,4 -15,8 0,4 -12,13 -27,19 -16,7 -50,25 -78,41 -27,16 -95,55 -150,87 -55,32 -113,65 -130,74 -16,9 -32,18 -35,21 -3,3 -21,13 -40,23 -68,36 -95,52 -108,65 -7,6 -19,12 -27,12 -7,0 -15,3 -17,8 -1,4 -18,15 -35,25 -18,9 -48,25 -65,35 -18,9 -35,20 -38,23 -3,3 -12,9 -20,12 -8,4 -37,21 -65,37 -27,17 -57,34 -65,37 -8,4 -17,9 -20,12 -3,3 -19,13 -35,22 -86,46 -100,55 -103,62 -2,4 -10,7 -17,7 -8,0 -20,6 -27,13 -13,11 -29,21 -110,65 -18,9 -35,19 -38,22 -3,3 -16,11 -30,18 -14,6 -52,28 -85,47 -33,20 -72,41 -87,47 -16,7 -28,15 -28,19 0,4 -11,10 -25,13 -14,4 -25,11 -25,16 0,6 -7,10 -15,10 -8,0 -15,4 -15,8 0,4 -12,13 -27,19 -37,15 -104,55 -121,71 -7,6 -19,12 -27,12 -7,0 -15,3 -17,8 -1,4 -32,22 -68,41 -36,19 -81,45 -100,58 -19,13 -40,23 -47,23 -7,0 -13,5 -13,10 0,6 -5,10 -11,10 -6,0 -44,20 -83,45 -40,25 -78,45 -84,45 -7,0 -12,3 -12,8 0,4 -10,12 -23,18 -37,17 -112,59 -117,65 -3,3 -12,9 -20,12 -8,4 -37,21 -65,37 -27,17 -57,34 -65,37 -8,4 -17,9 -20,12 -3,3 -20,14 -38,24 -17,9 -47,25 -64,35 -18,9 -34,20 -36,25 -2,4 -10,7 -17,7 -8,0 -20,6 -27,13 -13,11 -29,21 -110,65 -18,9 -34,20 -36,25 -2,4 -7,7 -11,7 -11,0 -202,110 -223,128 -16,13 -18,37 -18,222 0,114 3,210 6,213 7,7 80,-29 102,-50 z m 8262,-589 c 0,-191 -1,-205 -20,-224 -11,-11 -27,-20 -35,-20 -8,0 -15,-4 -15,-9 0,-5 -8,-11 -17,-15 -18,-5 -53,-26 -63,-36 -3,-3 -21,-13 -40,-23 -68,-36 -95,-52 -108,-64 -7,-7 -20,-13 -28,-13 -8,0 -14,-4 -14,-10 0,-5 -8,-10 -19,-10 -10,0 -24,-7 -31,-15 -7,-8 -18,-15 -25,-15 -8,0 -15,-3 -17,-7 -1,-5 -19,-17 -38,-27 -19,-10 -48,-26 -65,-35 -16,-9 -35,-22 -43,-28 -7,-7 -20,-13 -28,-13 -8,0 -14,-4 -14,-10 0,-5 -5,-10 -10,-10 -6,0 -50,-25 -99,-55 -49,-30 -94,-55 -100,-55 -6,0 -11,-3 -11,-7 0,-5 -10,-13 -23,-19 -12,-6 -78,-43 -146,-82 -68,-40 -125,-72 -127,-72 -2,0 -44,-25 -94,-55 -50,-30 -95,-55 -100,-55 -6,0 -10,-4 -10,-10 0,-5 -6,-10 -14,-10 -8,0 -21,-6 -28,-12 -13,-12 -29,-22 -110,-65 -18,-10 -34,-21 -36,-25 -2,-5 -10,-8 -18,-8 -8,0 -14,-4 -14,-10 0,-5 -11,-12 -25,-16 -14,-3 -25,-9 -25,-13 0,-4 -12,-12 -27,-18 -16,-7 -55,-28 -88,-48 -33,-19 -71,-41 -85,-47 -14,-7 -31,-18 -38,-25 -7,-7 -20,-13 -28,-13 -8,0 -14,-4 -14,-10 0,-5 -4,-10 -10,-10 -5,0 -50,-25 -100,-55 -50,-30 -95,-55 -100,-55 -6,0 -10,-4 -10,-10 0,-5 -5,-10 -11,-10 -6,0 -45,-20 -86,-45 -40,-25 -75,-45 -78,-45 -2,0 -40,-22 -84,-50 -44,-27 -85,-50 -90,-50 -5,0 -11,-3 -13,-7 -1,-5 -18,-16 -35,-25 -18,-10 -48,-26 -65,-35 -18,-10 -35,-21 -38,-24 -3,-4 -15,-9 -27,-13 -13,-4 -23,-12 -23,-17 0,-5 -6,-9 -12,-9 -7,0 -33,-14 -58,-30 -25,-16 -51,-30 -57,-30 -10,0 -13,50 -13,219 v 219 l 68,35 c 110,56 137,72 140,80 2,4 8,7 12,7 5,0 50,25 100,55 50,30 95,55 100,55 6,0 10,4 10,9 0,5 10,11 23,15 12,3 31,13 42,23 11,10 31,24 45,30 14,7 50,26 80,44 30,17 80,45 110,62 30,16 82,47 116,69 34,21 66,38 73,38 6,0 11,5 11,10 0,6 6,10 14,10 8,0 21,6 28,13 17,15 84,55 121,70 15,6 27,15 27,19 0,4 5,8 10,8 6,0 50,25 99,55 49,30 92,55 95,55 3,0 29,15 58,34 50,31 121,72 198,112 19,11 37,22 40,25 3,3 12,8 20,12 17,8 53,30 60,37 3,3 21,13 40,23 68,36 95,52 108,65 7,6 20,12 28,12 8,0 14,4 14,8 0,4 12,13 28,19 15,6 41,20 57,30 171,103 206,123 215,123 5,0 10,5 10,10 0,6 5,10 12,10 6,0 44,20 84,45 39,25 77,45 83,45 6,0 11,5 11,10 0,6 4,10 9,10 5,0 60,30 122,66 63,36 139,80 169,96 30,17 64,37 74,44 11,7 23,11 28,8 4,-3 8,-97 8,-210 z M 1482,4173 c 2,-5 18,-16 36,-25 17,-10 47,-26 64,-35 18,-10 35,-21 38,-24 3,-3 12,-9 20,-13 8,-4 24,-12 35,-19 73,-44 206,-117 215,-117 5,0 10,-4 10,-10 0,-5 5,-10 10,-10 6,0 50,-25 99,-55 49,-30 94,-55 100,-55 6,0 11,-4 11,-9 0,-5 8,-11 18,-14 9,-4 49,-25 87,-47 39,-23 82,-46 98,-53 15,-6 27,-15 27,-19 0,-4 6,-8 14,-8 8,0 21,-6 28,-12 17,-16 84,-56 121,-71 15,-6 27,-15 27,-19 0,-4 4,-8 10,-8 5,0 50,-25 100,-55 50,-30 93,-55 96,-55 3,0 30,-16 60,-35 30,-19 56,-35 59,-35 2,0 38,-20 78,-45 41,-25 80,-45 86,-45 6,0 11,-3 11,-7 0,-5 10,-13 23,-19 37,-17 112,-59 117,-65 3,-3 12,-8 20,-12 8,-4 22,-11 30,-17 23,-16 242,-140 246,-140 2,0 44,-25 93,-55 49,-30 94,-55 100,-55 6,0 11,-4 11,-10 0,-5 4,-10 10,-10 5,0 38,-17 72,-38 35,-21 88,-52 118,-69 30,-17 80,-45 110,-63 30,-17 67,-36 83,-43 15,-6 27,-15 27,-19 0,-4 4,-8 10,-8 5,0 50,-25 100,-55 50,-30 95,-55 100,-55 6,0 10,-4 10,-10 0,-5 5,-10 11,-10 7,0 39,-17 73,-38 34,-21 90,-54 126,-73 36,-19 67,-36 70,-39 5,-5 41,-26 100,-57 19,-10 37,-21 40,-24 3,-3 12,-8 20,-12 18,-8 53,-30 60,-37 3,-3 16,-11 30,-17 14,-7 50,-26 80,-44 30,-17 80,-45 110,-62 30,-16 82,-47 116,-69 34,-21 66,-38 73,-38 6,0 11,-4 11,-10 0,-5 4,-10 10,-10 5,0 38,-17 72,-38 61,-37 81,-49 213,-122 33,-18 76,-43 95,-55 19,-12 42,-24 50,-28 17,-8 53,-30 60,-37 3,-3 21,-13 40,-23 59,-31 95,-52 100,-57 3,-3 19,-12 35,-21 17,-9 81,-46 144,-83 62,-36 115,-66 117,-66 4,0 127,-72 154,-91 8,-5 23,-12 33,-15 9,-4 17,-10 17,-14 0,-4 11,-11 25,-14 14,-4 25,-11 25,-16 0,-6 4,-10 10,-10 5,0 32,-14 60,-31 l 50,-31 v -209 c 0,-120 -4,-209 -9,-209 -12,0 -71,32 -89,48 -7,6 -20,12 -28,12 -8,0 -14,3 -14,8 0,4 -10,12 -23,18 -33,15 -111,58 -117,64 -3,3 -14,10 -25,16 -11,6 -76,43 -144,82 -68,40 -127,72 -132,72 -5,0 -9,5 -9,10 0,6 -6,10 -14,10 -8,0 -21,6 -28,13 -17,15 -84,55 -120,70 -16,6 -28,15 -28,19 0,4 -5,8 -11,8 -10,0 -75,37 -154,88 -11,6 -29,16 -40,22 -11,5 -51,28 -90,50 -38,23 -82,46 -97,53 -16,6 -28,15 -28,19 0,4 -5,8 -10,8 -6,0 -50,25 -99,55 -49,30 -94,55 -100,55 -6,0 -11,5 -11,10 0,6 -4,10 -9,10 -5,0 -51,25 -102,55 -51,30 -99,55 -106,55 -7,0 -13,4 -13,9 0,5 -10,13 -22,17 -13,4 -25,9 -28,13 -5,6 -35,23 -100,58 -19,10 -37,21 -40,24 -3,3 -12,8 -20,12 -18,8 -53,30 -60,37 -3,3 -16,11 -30,17 -14,7 -56,31 -95,53 -38,23 -78,44 -87,47 -10,3 -18,9 -18,14 0,5 -6,9 -14,9 -8,0 -21,6 -28,13 -17,15 -84,55 -120,70 -16,6 -28,15 -28,19 0,4 -4,8 -10,8 -5,0 -38,17 -72,38 -61,37 -81,49 -213,122 -33,18 -77,44 -97,57 -21,12 -40,23 -43,23 -3,0 -45,25 -94,55 -49,30 -94,55 -100,55 -6,0 -11,3 -11,8 0,4 -10,12 -23,18 -12,6 -78,43 -146,82 -68,40 -125,72 -127,72 -2,0 -32,17 -66,38 -35,21 -70,41 -78,45 -18,8 -53,30 -60,37 -3,3 -16,11 -30,17 -34,17 -126,69 -180,103 -67,42 -152,90 -182,103 -16,6 -28,15 -28,19 0,4 -4,8 -10,8 -5,0 -50,25 -100,55 -50,30 -95,55 -100,55 -6,0 -10,4 -10,8 0,4 -12,13 -27,19 -16,7 -53,26 -83,43 -30,18 -80,46 -110,63 -30,16 -82,47 -116,69 -34,21 -66,38 -73,38 -6,0 -11,4 -11,9 0,5 -8,11 -17,15 -18,5 -53,26 -63,36 -3,3 -16,11 -30,17 -14,7 -50,26 -80,44 -30,17 -80,45 -110,62 -30,17 -83,48 -118,69 -34,21 -66,38 -71,38 -5,0 -11,3 -13,8 -1,4 -16,14 -33,22 l -30,16 -3,212 c -2,204 -2,212 17,212 11,0 21,-3 23,-7 z m 8338,-621 v -207 l -54,-33 c -30,-17 -59,-32 -65,-32 -6,0 -11,-4 -11,-10 0,-5 -4,-10 -10,-10 -5,0 -50,-25 -100,-55 -50,-30 -95,-55 -100,-55 -6,0 -10,-4 -10,-10 0,-5 -5,-10 -11,-10 -5,0 -54,-25 -107,-56 -53,-31 -110,-64 -127,-73 -16,-9 -32,-19 -35,-22 -3,-4 -15,-9 -27,-13 -13,-4 -23,-12 -23,-17 0,-5 -6,-9 -14,-9 -8,0 -16,-3 -18,-7 -1,-5 -18,-16 -35,-25 -82,-44 -98,-54 -111,-65 -7,-7 -20,-13 -28,-13 -8,0 -14,-4 -14,-10 0,-5 -5,-10 -11,-10 -6,0 -51,-25 -100,-55 -49,-30 -91,-55 -93,-55 -2,0 -59,-32 -127,-72 -68,-39 -134,-76 -146,-82 -13,-6 -23,-14 -23,-18 0,-5 -5,-8 -11,-8 -6,0 -51,-25 -100,-55 -49,-30 -93,-55 -99,-55 -5,0 -10,-4 -10,-10 0,-5 -6,-10 -14,-10 -8,0 -21,-6 -28,-12 -7,-7 -43,-28 -78,-47 -36,-19 -81,-45 -100,-58 -19,-13 -40,-23 -47,-23 -7,0 -13,-4 -13,-10 0,-5 -6,-10 -14,-10 -8,0 -21,-6 -28,-12 -13,-13 -40,-29 -108,-65 -19,-10 -37,-20 -40,-23 -10,-10 -45,-31 -62,-36 -10,-4 -18,-10 -18,-15 0,-5 -5,-9 -11,-9 -6,0 -51,-25 -100,-55 -49,-30 -91,-55 -93,-55 -2,0 -65,-36 -141,-80 -76,-44 -141,-80 -146,-80 -5,0 -9,-4 -9,-10 0,-5 -6,-10 -12,-10 -7,0 -33,-14 -58,-30 -25,-16 -48,-30 -52,-30 -5,0 -8,99 -8,220 0,201 2,221 18,226 29,9 86,38 100,51 7,7 19,13 27,13 7,0 15,3 17,8 2,4 21,16 43,27 22,11 42,22 45,25 3,3 20,13 38,23 81,43 97,53 110,65 7,6 20,12 28,12 8,0 14,3 14,8 0,4 10,12 23,18 47,22 112,60 131,76 11,10 29,21 40,24 12,4 23,9 26,13 3,3 19,13 35,22 17,9 75,42 130,74 166,96 199,115 225,128 14,6 27,14 30,18 3,3 12,8 20,12 17,8 53,30 60,37 3,3 21,13 40,24 70,37 145,80 195,111 27,17 79,47 115,66 36,19 67,37 70,40 3,3 12,8 20,12 17,8 53,30 60,37 6,6 84,49 117,64 13,6 23,14 23,19 0,4 6,7 14,7 8,0 21,6 28,13 7,7 24,18 38,25 14,6 52,28 85,47 33,20 72,41 88,48 15,6 27,14 27,18 0,4 10,9 23,13 12,3 32,13 43,23 19,17 41,30 119,72 17,9 32,19 33,24 2,4 10,7 17,7 8,0 20,6 27,13 13,11 36,25 113,66 16,9 32,18 35,21 5,5 23,15 88,51 20,11 60,34 87,50 28,17 62,35 78,42 15,6 27,15 27,19 0,4 7,8 15,8 13,0 15,-30 15,-208 z m -10,-967 c 0,-198 -1,-205 -22,-225 -13,-11 -33,-23 -45,-26 -13,-4 -23,-10 -23,-15 0,-5 -6,-9 -14,-9 -8,0 -21,-6 -28,-12 -13,-13 -40,-29 -108,-65 -19,-10 -37,-21 -40,-24 -3,-3 -12,-8 -20,-12 -8,-4 -22,-11 -30,-17 -28,-18 -145,-85 -182,-105 -21,-11 -38,-23 -38,-27 0,-5 -4,-8 -9,-8 -5,0 -64,-32 -132,-72 -68,-39 -134,-76 -146,-82 -13,-6 -23,-14 -23,-18 0,-5 -5,-8 -12,-8 -6,0 -44,-20 -84,-45 -39,-25 -77,-45 -83,-45 -6,0 -11,-4 -11,-10 0,-5 -4,-10 -10,-10 -5,0 -42,-20 -82,-44 -111,-67 -181,-106 -200,-113 -10,-3 -18,-9 -18,-14 0,-5 -6,-9 -14,-9 -8,0 -21,-6 -28,-12 -13,-13 -40,-29 -108,-65 -19,-10 -37,-21 -40,-24 -3,-3 -21,-14 -40,-25 -19,-10 -37,-21 -40,-24 -3,-3 -21,-13 -40,-23 -68,-36 -95,-52 -108,-64 -7,-7 -20,-13 -28,-13 -8,0 -14,-4 -14,-8 0,-4 -12,-13 -27,-19 -16,-7 -77,-42 -138,-78 -60,-36 -118,-69 -127,-72 -10,-3 -18,-9 -18,-14 0,-5 -6,-9 -14,-9 -8,0 -21,-6 -28,-13 -13,-12 -40,-28 -108,-64 -19,-10 -37,-21 -40,-24 -3,-3 -12,-8 -20,-12 -17,-8 -53,-30 -60,-37 -3,-3 -21,-13 -40,-23 -68,-36 -95,-52 -108,-64 -7,-7 -20,-13 -28,-13 -8,0 -14,-4 -14,-10 0,-5 -8,-10 -19,-10 -10,0 -24,-7 -31,-15 -7,-8 -19,-15 -26,-15 -8,0 -14,-4 -14,-10 0,-5 -6,-10 -13,-10 -7,0 -29,-11 -50,-25 -20,-14 -42,-23 -47,-20 -6,4 -10,91 -10,220 v 214 l 58,29 c 31,16 76,41 99,55 24,15 47,27 53,27 5,0 10,5 10,10 0,6 5,10 11,10 6,0 45,20 86,45 40,25 76,45 78,45 3,0 29,16 59,35 30,19 57,35 60,35 3,0 39,20 79,45 41,25 80,45 86,45 6,0 11,5 11,10 0,6 7,10 15,10 8,0 15,5 15,10 0,6 6,10 14,10 8,0 21,6 28,13 8,6 27,19 43,28 17,9 46,25 65,35 19,10 37,22 40,25 3,3 12,9 20,13 8,4 24,12 35,19 73,44 206,117 215,117 5,0 10,4 10,9 0,5 8,11 18,15 17,5 52,26 62,36 3,3 20,13 38,23 17,9 47,25 64,35 18,9 35,20 38,23 3,4 15,9 28,13 12,4 22,12 22,17 0,5 7,9 15,9 8,0 15,4 15,8 0,4 12,13 28,19 28,12 105,55 185,104 26,16 51,29 56,29 5,0 11,3 13,8 2,4 18,15 36,25 81,43 97,53 110,65 7,6 19,12 27,12 7,0 15,3 17,8 3,6 17,15 103,61 16,9 32,19 35,22 3,3 12,8 20,12 8,4 22,11 30,17 58,37 186,112 240,141 36,19 67,37 68,42 2,4 8,7 12,7 5,0 50,25 100,55 50,30 95,55 100,55 4,0 10,3 12,8 5,12 102,61 110,56 5,-3 8,-97 8,-209 z"
         id="path833" />
      <path
         style="fill:#008cff;fill-opacity:1"
         d="m 3780,8070 c -81,-20 -107,-29 -151,-52 -57,-30 -139,-106 -139,-129 0,-10 -4,-21 -10,-24 -20,-12 -11,-94 15,-136 30,-46 61,-79 75,-79 6,0 10,-4 10,-8 0,-9 73,-43 130,-60 100,-31 121,-33 230,-29 63,2 136,9 163,15 121,29 250,126 274,207 16,55 -6,122 -57,173 -39,39 -155,102 -188,102 -10,0 -23,5 -29,11 -14,14 -275,21 -323,9 z"
         id="path835" />
      <path
         style="fill:#008cff;fill-opacity:1"
         d="m 5340,7780 c -101,-10 -202,-26 -280,-44 -36,-9 -87,-20 -115,-26 -27,-6 -59,-15 -70,-19 -11,-5 -47,-16 -80,-26 -33,-10 -64,-22 -69,-27 -6,-4 -17,-8 -25,-8 -9,0 -58,-20 -109,-45 -52,-25 -98,-45 -103,-45 -5,0 -9,-4 -9,-10 0,-5 -6,-10 -12,-10 -13,-1 -105,-61 -174,-115 -70,-54 -171,-163 -218,-234 -25,-39 -46,-73 -46,-77 0,-3 -6,-20 -14,-37 -23,-51 -46,-159 -46,-216 0,-53 26,-188 40,-206 4,-5 11,-21 15,-34 22,-73 159,-241 269,-330 80,-65 276,-175 391,-220 11,-5 37,-16 58,-25 21,-9 47,-16 57,-16 11,0 20,-4 20,-9 0,-5 21,-12 48,-16 26,-4 52,-10 57,-14 6,-4 48,-16 95,-25 47,-10 103,-22 125,-27 136,-31 586,-50 730,-30 44,6 112,15 150,21 131,18 266,45 296,60 9,5 37,11 63,15 25,4 46,11 46,16 0,5 9,9 20,9 10,0 36,7 57,16 21,9 47,20 58,25 121,47 320,160 397,226 78,66 188,185 188,203 0,5 4,10 10,10 5,0 12,11 16,25 3,14 10,25 15,25 5,0 9,7 9,15 0,8 5,15 10,15 6,0 10,7 10,16 0,9 6,30 14,47 21,46 36,129 36,196 0,60 -18,169 -30,186 -4,6 -11,25 -15,43 -3,17 -11,32 -16,32 -5,0 -9,5 -9,11 0,21 -88,143 -142,199 -30,30 -81,75 -114,100 -32,25 -61,47 -64,50 -12,13 -108,70 -118,70 -5,0 -12,3 -14,8 -1,4 -19,15 -38,24 -92,45 -145,68 -153,68 -5,0 -23,6 -40,14 -45,21 -176,63 -217,71 -19,3 -44,10 -55,15 -11,4 -65,15 -120,24 -55,10 -120,22 -145,28 -56,12 -538,19 -640,8 z m 1032,-450 c 56,-25 113,-68 116,-87 2,-16 -9,-28 -52,-53 -31,-17 -56,-38 -56,-46 0,-8 31,-46 69,-84 95,-95 102,-130 28,-145 -48,-10 -130,-35 -149,-46 -10,-5 -32,-9 -50,-9 -28,0 -37,7 -61,44 -15,24 -46,59 -69,77 -23,19 -46,39 -52,45 -6,5 -18,13 -26,17 -8,4 -31,17 -50,29 -78,47 -240,31 -254,-26 -9,-36 16,-105 52,-144 6,-7 12,-18 12,-24 0,-6 8,-18 18,-27 18,-17 29,-33 63,-96 34,-63 30,-141 -9,-202 -36,-55 -63,-78 -142,-115 -108,-50 -164,-61 -320,-60 -104,0 -159,5 -195,16 -81,26 -147,21 -213,-15 -31,-17 -61,-35 -66,-40 -12,-11 -83,-12 -88,-1 -4,8 -71,48 -110,65 -15,6 -30,17 -32,24 -5,13 41,63 58,63 15,0 76,50 76,63 0,7 -15,23 -33,37 -17,14 -58,50 -89,82 -76,74 -78,113 -8,132 14,4 34,11 45,15 129,50 195,59 195,25 0,-8 3,-14 8,-14 4,-1 22,-22 41,-48 18,-26 54,-63 80,-82 25,-19 52,-41 59,-47 7,-7 19,-13 27,-13 7,0 15,-3 17,-7 7,-18 107,-43 166,-43 87,0 151,36 152,84 0,24 -31,96 -42,96 -4,0 -8,5 -8,10 0,10 -77,119 -92,130 -3,3 -10,18 -13,33 -4,15 -11,30 -16,33 -25,15 4,194 31,194 4,0 20,12 35,26 33,30 125,74 206,98 105,30 366,16 441,-25 31,-16 77,-10 118,16 22,14 42,25 46,25 3,0 12,7 20,15 18,17 82,20 116,5 z"
         id="path837" />
      <path
         style="fill:#008cff;fill-opacity:1"
         d="m 7245,6114 c -62,-6 -122,-24 -208,-63 -61,-27 -157,-116 -157,-145 0,-12 -5,-27 -11,-33 -9,-9 -8,-24 2,-59 26,-89 133,-172 264,-205 65,-17 325,-17 385,-1 122,34 258,137 262,200 3,53 -3,95 -20,121 -24,39 -93,101 -119,107 -13,4 -23,10 -23,14 0,5 -14,12 -32,15 -18,4 -39,11 -48,15 -52,26 -199,42 -295,34 z"
         id="path839" />
    </g>
  </g>
</svg>
