<?xml version="1.0" encoding="UTF-8" standalone="no"?>
<svg
   xmlns:dc="http://purl.org/dc/elements/1.1/"
   xmlns:cc="http://creativecommons.org/ns#"
   xmlns:rdf="http://www.w3.org/1999/02/22-rdf-syntax-ns#"
   xmlns:svg="http://www.w3.org/2000/svg"
   xmlns="http://www.w3.org/2000/svg"
   xmlns:sodipodi="http://sodipodi.sourceforge.net/DTD/sodipodi-0.dtd"
   xmlns:inkscape="http://www.inkscape.org/namespaces/inkscape"
   sodipodi:docname="IconAttention.svg"
   inkscape:version="1.0 (4035a4fb49, 2020-05-01)"
   id="svg8"
   version="1.1"
   viewBox="0 0 210 297"
   height="297mm"
   width="210mm">
  <defs
     id="defs2" />
  <sodipodi:namedview
     inkscape:window-maximized="1"
     inkscape:window-y="-8"
     inkscape:window-x="-8"
     inkscape:window-height="1017"
     inkscape:window-width="1920"
     showgrid="false"
     inkscape:document-rotation="0"
     inkscape:current-layer="layer1"
     inkscape:document-units="mm"
     inkscape:cy="478.93394"
     inkscape:cx="241.18791"
     inkscape:zoom="0.49497475"
     inkscape:pageshadow="2"
     inkscape:pageopacity="0.0"
     borderopacity="1.0"
     bordercolor="#666666"
     pagecolor="#ffffff"
     id="base" />
  <metadata
     id="metadata5">
    <rdf:RDF>
      <cc:Work
         rdf:about="">
        <dc:format>image/svg+xml</dc:format>
        <dc:type
           rdf:resource="http://purl.org/dc/dcmitype/StillImage" />
        <dc:title></dc:title>
      </cc:Work>
    </rdf:RDF>
  </metadata>
  <g
     id="layer1"
     inkscape:groupmode="layer"
     inkscape:label="Слой 1">
    <g
       style="fill:#008cff;fill-opacity:1"
       transform="matrix(0.0209962,0,0,-0.02147057,10.571241,246.76902)"
       fill="#000000"
       stroke="none"
       id="g875">
      <path
         style="fill:#008cff;fill-opacity:1"
         d="M 4825,9804 C 3845,9743 2984,9473 2275,9005 1429,8447 918,7667 779,6726 c -42,-290 -44,-760 -2,-971 24,-127 29,-402 8,-527 C 751,5020 659,4804 535,4639 468,4550 349,4430 188,4291 83,4199 52,4155 24,4050 2,3966 1,3816 23,3733 c 31,-120 117,-257 206,-330 53,-44 275,-144 421,-190 l 120,-38 -6,-105 c -6,-119 9,-220 49,-320 l 25,-60 -24,-59 c -29,-72 -44,-145 -44,-216 0,-72 34,-197 72,-264 41,-73 157,-188 233,-232 87,-51 91,-62 87,-257 -3,-183 7,-238 62,-357 72,-153 190,-271 351,-351 173,-85 356,-111 577,-80 606,85 1042,-12 1309,-290 99,-104 145,-180 218,-356 52,-123 126,-178 242,-178 26,0 68,-10 95,-22 48,-21 53,-21 219,-9 622,44 1395,132 2615,297 305,41 591,80 635,86 91,12 199,53 255,98 53,42 90,119 90,189 0,45 -10,75 -56,175 -228,491 -238,971 -33,1603 93,286 208,550 451,1038 372,745 496,1018 593,1310 69,209 90,309 111,545 74,800 -69,1577 -416,2271 -272,542 -633,990 -1100,1365 -500,400 -1120,671 -1782,780 -144,23 -195,27 -438,29 -151,1 -302,1 -335,-1 z m 632,-509 c 713,-92 1355,-406 1880,-918 458,-448 771,-971 953,-1593 121,-415 168,-928 120,-1334 -6,-47 -15,-124 -20,-172 -12,-103 -79,-342 -151,-535 -104,-280 -199,-494 -464,-1043 -412,-854 -554,-1231 -636,-1695 -26,-150 -38,-513 -20,-650 17,-133 49,-283 81,-387 16,-50 27,-95 25,-98 -3,-4 -28,-10 -57,-13 -29,-3 -289,-37 -578,-76 C 5785,673 5306,616 4784,565 c -264,-25 -621,-55 -661,-55 -17,0 -32,20 -71,93 -146,269 -367,483 -628,608 -180,86 -406,146 -633,170 -140,14 -555,6 -691,-14 -219,-32 -373,21 -426,148 -13,32 -16,68 -15,176 2,170 -14,255 -73,374 -61,124 -188,265 -269,299 -18,7 -38,20 -46,29 -14,18 -9,33 55,142 27,47 29,57 29,155 l -1,105 -44,84 c -43,80 -45,87 -44,165 0,72 4,90 39,166 65,144 59,241 -22,324 -46,47 -125,86 -174,86 -167,0 -558,140 -595,212 -28,55 -20,71 79,156 414,358 643,780 698,1287 14,130 6,376 -17,510 -21,127 -30,530 -15,691 53,563 236,1033 570,1464 140,181 410,436 621,588 297,213 695,410 1088,538 375,122 863,212 1282,237 175,10 529,6 637,-8 z"
         id="path869" />
      <path
         style="fill:#008cff;fill-opacity:1"
         d="m 4297,8586 c -49,-18 -83,-50 -109,-101 -12,-22 -31,-53 -44,-68 -47,-56 -48,-79 -20,-392 107,-1180 230,-2234 362,-3095 75,-486 79,-506 109,-546 50,-66 58,-67 471,-72 401,-5 453,0 511,44 64,49 73,86 98,399 47,604 97,1057 250,2260 41,325 95,761 119,970 42,348 44,385 32,436 -17,76 -46,120 -98,149 l -43,25 -800,2 c -660,2 -807,0 -838,-11 z m 1343,-437 c 0,-37 -1,-42 -141,-1164 -130,-1043 -179,-1471 -214,-1890 -15,-170 -29,-320 -31,-332 -4,-23 -7,-23 -159,-23 -101,0 -155,4 -155,10 0,6 -14,100 -31,208 -76,493 -167,1189 -233,1797 -54,489 -136,1335 -136,1401 v 24 h 550 550 z"
         id="path871" />
      <path
         style="fill:#008cff;fill-opacity:1"
         d="m 4975,4024 c -11,-2 -45,-9 -75,-15 -258,-52 -492,-313 -516,-579 -29,-304 235,-609 584,-676 260,-50 497,40 654,248 127,167 179,342 149,503 -15,82 -79,208 -141,277 -62,69 -171,144 -272,186 -112,47 -294,73 -383,56 z m 252,-436 c 120,-79 125,-299 9,-395 -124,-102 -302,-49 -354,106 -21,60 -15,141 14,199 42,85 115,124 225,119 52,-2 75,-8 106,-29 z"
         id="path873" />
    </g>
  </g>
</svg>
