<?xml version="1.0" encoding="UTF-8" standalone="no"?>
<svg
   xmlns:dc="http://purl.org/dc/elements/1.1/"
   xmlns:cc="http://creativecommons.org/ns#"
   xmlns:rdf="http://www.w3.org/1999/02/22-rdf-syntax-ns#"
   xmlns:svg="http://www.w3.org/2000/svg"
   xmlns="http://www.w3.org/2000/svg"
   xmlns:sodipodi="http://sodipodi.sourceforge.net/DTD/sodipodi-0.dtd"
   xmlns:inkscape="http://www.inkscape.org/namespaces/inkscape"
   sodipodi:docname="IconWeapon.svg"
   inkscape:version="1.0 (4035a4fb49, 2020-05-01)"
   id="svg8"
   version="1.1"
   viewBox="0 0 210 297"
   height="297mm"
   width="210mm">
  <defs
     id="defs2" />
  <sodipodi:namedview
     inkscape:window-maximized="1"
     inkscape:window-y="-8"
     inkscape:window-x="-8"
     inkscape:window-height="1017"
     inkscape:window-width="1920"
     showgrid="false"
     inkscape:document-rotation="0"
     inkscape:current-layer="layer1"
     inkscape:document-units="mm"
     inkscape:cy="487.064"
     inkscape:cx="404.20511"
     inkscape:zoom="0.7"
     inkscape:pageshadow="2"
     inkscape:pageopacity="0.0"
     borderopacity="1.0"
     bordercolor="#666666"
     pagecolor="#ffffff"
     id="base" />
  <metadata
     id="metadata5">
    <rdf:RDF>
      <cc:Work
         rdf:about="">
        <dc:format>image/svg+xml</dc:format>
        <dc:type
           rdf:resource="http://purl.org/dc/dcmitype/StillImage" />
        <dc:title></dc:title>
      </cc:Work>
    </rdf:RDF>
  </metadata>
  <g
     id="layer1"
     inkscape:groupmode="layer"
     inkscape:label="Слой 1">
    <path
       style="fill:#008cff;stroke:none;stroke-width:0.0244401;fill-opacity:1"
       id="path833"
       d="m 88.137289,59.106647 c -5.501565,1.240335 -9.70142,5.520684 -11.199618,11.430492 -0.44209,1.824012 -0.614011,6.566448 -0.270162,8.244545 0.196483,0.924163 0.196483,0.924163 -0.466653,0.778249 -1.350832,-0.340486 -6.434866,-0.559372 -8.940042,-0.36481 -4.150734,0.291848 -4.273537,0.316162 -4.862991,1.629459 -0.270166,0.632325 -0.687696,1.678088 -0.908741,2.359051 -0.319286,1.045773 -0.540332,1.313297 -1.620996,1.945622 -1.670119,0.972801 -3.905128,3.3805 -5.231398,5.61796 -0.589454,0.997125 -2.063088,4.256035 -3.241995,7.223096 -1.915723,4.742439 -2.554298,6.007089 -5.231398,10.384719 -1.743799,2.86978 -3.291115,5.69092 -3.610402,6.66373 -1.154346,3.28323 -2.554298,12.33033 -2.554298,16.29453 0,1.11873 -0.09824,1.38625 -0.515771,1.62945 -0.736817,0.36481 -1.670118,2.57794 -2.063088,4.79107 -0.761377,4.35333 -0.663134,12.91404 0.196485,18.532 l 0.294727,1.82401 1.178907,0.58368 c 1.498194,0.72962 3.192872,0.75393 4.691067,0.0486 l 1.105224,-0.53504 -0.147363,-4.4506 c -0.09824,-3.16162 -0.04913,-4.79107 0.171924,-5.69092 0.171924,-0.70529 0.392969,-1.26465 0.491211,-1.21601 0.09824,0.0487 1.252588,1.21601 2.554297,2.62658 2.185891,2.33474 2.60342,2.6509 4.592825,3.57506 1.203467,0.55937 2.185889,1.14305 2.185889,1.28898 0,0.58368 -1.817481,8.3175 -2.554298,10.8468 l -0.785938,2.69955 0.908741,0.68096 c 0.515772,0.3648 1.399952,1.16737 1.989405,1.79969 1.080665,1.11874 1.105226,1.14306 1.620997,4.23171 l 0.540332,3.11299 -1.203467,1.19169 c -1.964844,1.94562 -3.217434,5.13156 -3.217434,8.1959 0,1.4349 0.39297,0.8269 0.957863,-1.45921 1.940283,-8.02566 4.150734,-2.1645 2.873585,7.73383 -0.196485,1.60513 -0.44209,3.9885 -0.515771,5.27748 l -0.171924,2.33473 -0.933302,-0.31616 c -0.515772,-0.17024 -3.610402,-0.94849 -6.876956,-1.70241 -6.533108,-1.50785 -9.578617,-2.33474 -11.297856,-3.06434 -1.080664,-0.46209 -1.154346,-0.55936 -1.670118,-2.14019 -0.88418,-2.72386 -2.898146,-5.08291 -5.084035,-6.00708 -1.178907,-0.4864 -3.241994,-0.41344 -4.470021,0.1216 -1.32627,0.608 -2.849025,2.14017 -3.634963,3.69667 -0.368409,0.68097 -1.129786,3.11299 -1.743799,5.37476 -0.859619,3.30755 -1.326271,4.62084 -2.333253,6.4935 -3.51216,6.51781 -4.715627,8.9255 -5.354201,10.65223 -1.9157238,5.22885 -1.596437,9.36328 1.006983,13.20588 1.105224,1.65376 2.603418,2.67521 3.905128,2.67521 1.32627,0 3.241994,-1.09441 4.764748,-2.72386 1.79292,-1.89698 3.610402,-4.62084 6.852395,-10.16584 1.449072,-2.48066 2.898146,-4.76675 3.217433,-5.10724 l 0.614014,-0.58369 1.031543,0.99714 c 3.659524,3.47778 13.999518,8.04997 23.406211,10.31176 4.322658,1.02144 7.441848,1.43488 11.199614,1.43488 5.206838,0 8.178664,-0.92416 10.168069,-3.21026 3.094631,-3.57506 7.883944,-17.46189 13.655679,-39.66623 0.29472,-1.11873 0.540331,-1.14304 0.982416,-0.1216 0.171924,0.43777 0.712255,1.21602 1.154348,1.70241 0.810501,0.89985 0.884179,0.92417 2.505181,0.92417 1.42451,0 1.71923,-0.0729 1.842035,-0.46209 0.07368,-0.2432 1.129792,-1.96993 2.333257,-3.81826 1.20347,-1.87266 2.50518,-4.06147 2.87359,-4.91268 l 0.66314,-1.50786 h 2.48061 c 5.40332,0 12.96798,-0.87553 16.20997,-1.89697 l 1.47363,-0.43776 0.71226,4.37764 c 0.85962,5.20451 0.90874,8.00134 0.19648,10.48199 -0.27017,0.92417 -0.90874,3.11299 -1.39995,4.86404 -1.30171,4.52356 -1.37539,6.34757 -0.39297,9.60648 1.08067,3.52642 0.9333,4.96131 -1.30171,12.35465 -1.1789,3.86691 -1.71923,6.54214 -1.9894,9.46056 l -0.14736,1.75105 0.78593,0.41344 c 2.28414,1.16738 26.35348,0.87553 31.80592,-0.38912 1.98941,-0.46208 5.89454,-1.99426 7.12256,-2.79682 0.63858,-0.38912 0.63858,-0.4864 0.49122,-2.0429 -0.27016,-2.55361 -0.5649,-3.33186 -1.57188,-4.15875 -1.22802,-0.99713 -3.02095,-1.62946 -6.55766,-2.31042 -4.15074,-0.80256 -4.81387,-1.09441 -6.92608,-3.0157 -1.74381,-1.58082 -1.98941,-1.72673 -3.95426,-2.23746 -1.15434,-0.31616 -2.3578,-0.77825 -2.67709,-1.04576 -0.73683,-0.63233 -1.03155,-1.92131 -1.05611,-4.35332 v -1.89698 l 0.8105,0.58369 c 1.08066,0.80256 2.28413,1.41057 2.48061,1.21601 0.3193,-0.31616 0.1228,-0.87552 -0.46665,-1.33761 -0.34384,-0.26752 -0.61401,-0.58369 -0.61401,-0.70529 0,-0.1216 0.36841,-0.77825 0.83507,-1.48353 3.14374,-4.88835 4.83842,-10.31176 6.14013,-19.52912 1.67012,-11.79529 2.40693,-17.77805 2.52974,-20.57487 0.27017,-5.88549 -0.71226,-8.39047 -4.12617,-10.65225 -2.62799,-1.72673 -5.08404,-2.45634 -13.23815,-3.79394 -2.89814,-0.48641 -5.72261,-0.99713 -6.26294,-1.11873 l -0.98243,-0.26753 1.30172,-1.19169 c 0.98242,-0.89985 1.59644,-1.77538 2.38237,-3.35619 0.58945,-1.19168 1.76836,-3.40483 2.65255,-4.93699 3.24198,-5.64229 4.88754,-9.3876 5.57524,-12.67083 0.27017,-1.38624 0.27017,-1.4592 -0.31929,-2.06721 -0.31929,-0.3648 -0.73681,-0.89985 -0.88418,-1.19169 -0.41752,-0.82688 -0.31929,-2.52929 0.19649,-3.40482 0.49121,-0.77825 0.71225,-0.89985 2.30868,-1.16737 0.88418,-0.14593 1.10523,-0.43777 0.71227,-0.99713 -0.0983,-0.14592 -0.71227,-0.34048 -1.39995,-0.43776 -2.9964,-0.41344 -3.16832,-0.68097 -0.98244,-1.58082 0.73683,-0.31615 2.08766,-1.0944 2.9964,-1.77537 2.16133,-1.60513 3.41392,-2.14018 5.45244,-2.35906 1.49819,-0.14591 1.79293,-0.26752 2.87359,-1.21601 l 1.20347,-1.04576 6.26294,0.14592 c 3.43847,0.0973 11.46978,0.26752 17.8064,0.38912 6.36119,0.1216 14.83457,0.31616 18.8625,0.38912 l 7.29449,0.17024 v -2.79682 -2.796815 l -3.7332,-0.145924 c -2.06309,-0.07294 -8.62076,-0.316162 -14.56441,-0.535048 -5.94366,-0.218877 -11.05225,-0.462087 -11.34697,-0.510725 -0.49123,-0.09728 -0.51579,-0.194553 -0.39298,-1.605126 0.0737,-0.851211 0.17192,-1.580812 0.24561,-1.629459 0.0491,-0.07294 6.72959,0.07293 14.88369,0.291848 8.12955,0.218876 15.37492,0.389115 16.08717,0.389115 h 1.27715 v -1.070078 -1.045773 l -1.52275,-0.145924 c -0.85962,-0.07294 -4.64195,-0.194562 -8.42428,-0.267515 -3.78233,-0.07294 -11.69083,-0.291848 -17.5608,-0.48641 -5.86997,-0.194562 -11.15049,-0.364801 -11.71538,-0.364801 h -1.0561 v -3.258909 -3.2589 l -0.88418,-0.170247 c -0.76138,-0.121601 -1.00699,-0.04859 -1.59644,0.510724 l -0.6877,0.656649 -1.91572,-0.632325 c -1.0561,-0.340486 -2.57886,-0.753925 -3.38935,-0.924164 -1.91573,-0.413448 -7.98219,-0.413448 -9.45583,0 -0.614,0.170239 -2.50517,1.167364 -4.19985,2.213137 -1.71924,1.070087 -3.41391,2.042898 -3.78232,2.188813 -0.85962,0.316162 -1.96485,0.1216 -4.59283,-0.875525 -1.1789,-0.462087 -2.43149,-0.826887 -2.77534,-0.826887 -0.51577,0 -0.61401,-0.09728 -0.61401,-0.753925 0,-0.437763 0.31929,-1.191688 0.76137,-1.824012 1.03155,-1.483536 1.44908,-2.577947 1.44908,-3.74531 0,-0.851211 -0.0737,-0.972811 -0.41753,-0.875525 -1.39995,0.437762 -5.82085,1.337602 -7.12256,1.483526 l -1.54731,0.145924 v -0.753925 c 0,-0.705287 -0.0491,-0.753925 -0.78595,-0.60801 -0.44209,0.07293 -1.94028,0.340486 -3.31567,0.559371 l -2.50518,0.437763 -0.14736,-0.924173 c -0.17193,-0.924163 -0.63857,-1.216011 -1.03155,-0.632324 -0.3684,0.583686 -1.30171,3.429147 -1.30171,3.98851 0,1.118735 0.22105,1.313297 1.57188,1.313297 0.73682,0 1.47364,0.145915 1.76836,0.364801 0.41753,0.316162 0.36841,0.340476 -0.88418,0.3648 -0.85962,0 -1.57187,0.145924 -1.94028,0.413448 -0.56489,0.389115 -0.56489,0.413439 -0.1228,0.729601 0.39296,0.291839 0.41752,0.364801 0.0982,0.559363 -0.19648,0.1216 -0.5649,0.243201 -0.78594,0.243201 -0.22104,0 -0.66314,0.340486 -0.98243,0.72961 -0.54033,0.680963 -0.73682,0.753925 -2.55429,0.875525 -1.35084,0.1216 -2.16134,0.07294 -2.52974,-0.1216 -0.54033,-0.291839 -0.54033,-0.316163 0.6877,-1.605136 1.37538,-1.434888 1.44906,-1.799688 0.83505,-3.526424 -0.56489,-1.605135 -0.29472,-2.067212 2.18589,-3.818272 l 2.03853,-1.410573 1.47363,-2.918423 c 1.89116,-3.745301 2.45606,-4.64515 3.29112,-5.13156 0.68769,-0.413439 0.68769,-0.413439 0.39297,-1.580812 -0.4421,-1.580811 -1.22803,-3.185938 -1.94028,-3.842586 -0.46666,-0.437763 -0.66314,-0.486401 -1.22803,-0.291839 -0.58946,0.243201 -0.76138,0.145915 -1.64556,-0.705286 -0.54033,-0.510725 -1.22803,-1.021449 -1.4982,-1.118735 -0.27016,-0.07294 -1.47363,0.04868 -2.6771,0.267524 l -2.18589,0.413448 -0.98242,-0.972811 c -1.20347,-1.240335 -3.26655,-2.310422 -5.796289,-2.967061 -2.554299,-0.680972 -7.220812,-0.875525 -9.431262,-0.36481 z M 65.590695,81.383945 c 0.294727,0.145924 1.645558,0.437762 2.996389,0.608001 1.35083,0.194562 2.554299,0.437762 2.677103,0.559362 0.294724,0.291848 -0.466653,0.802573 -2.259574,1.507859 l -1.620996,0.65664 -0.908741,-0.826887 C 65.983664,83.451157 65.124045,82.964756 64.583712,82.794518 63.797775,82.575632 63.57673,82.38107 63.57673,81.967631 c 0,-0.291848 0.07368,-0.60801 0.171924,-0.680972 0.245605,-0.267515 1.277149,-0.194562 1.842041,0.09729 z m 87.828565,4.304672 c 0.0737,0.218886 -0.0983,0.267525 -0.61402,0.145924 -1.22802,-0.291847 -1.49819,-0.583686 -0.46664,-0.535048 0.54033,0.04868 1.00698,0.218886 1.08066,0.389124 z m -35.71105,0.656649 c 0.0737,0.194562 0.0246,0.3648 -0.0983,0.3648 -0.14736,0 -0.24561,-0.170238 -0.24561,-0.3648 0,-0.194562 0.0491,-0.36481 0.0983,-0.36481 0.0491,0 0.14736,0.170248 0.24561,0.36481 z m 3.04551,0.656639 c -0.14736,0.437763 -0.68769,0.510725 -0.68769,0.09729 0,-0.218886 0.17191,-0.389125 0.39295,-0.389125 0.22105,0 0.34386,0.121601 0.29474,0.291839 z m 20.58174,1.288973 c -0.0982,0.267524 -0.54033,0.364801 -1.54731,0.364801 -1.621,0 -1.52276,-0.267524 0.29472,-0.802563 1.22803,-0.340486 1.52276,-0.243201 1.25259,0.437762 z m 18.15025,0.04859 c 0.0737,0.510724 0.22105,1.167364 0.29473,1.459211 0.1228,0.535039 0.0491,0.559363 -1.1789,0.535039 -0.73682,0 -1.52276,-0.09728 -1.76836,-0.170238 -0.39297,-0.170239 -0.36842,-0.2432 0.19647,-1.070087 0.54034,-0.778249 1.59645,-1.605136 2.11222,-1.653774 0.0982,0 0.2456,0.413439 0.34384,0.899849 z m -26.4026,2.626575 c -0.17191,0.194562 -0.41752,0.291848 -0.54033,0.218886 -0.1228,-0.07294 -0.0246,-0.291848 0.22105,-0.462086 0.54033,-0.413439 0.73681,-0.267524 0.31928,0.2432 z m 7.07344,-0.170238 c 0.0491,0.170238 -0.14736,0.291838 -0.41752,0.291838 -0.51577,0 -0.66314,-0.267515 -0.34385,-0.583677 0.22104,-0.218886 0.63858,-0.04868 0.76137,0.291839 z m -32.12521,0.04868 c 0,0.1216 -0.0982,0.2432 -0.2456,0.2432 -0.1228,0 -0.24561,-0.1216 -0.24561,-0.2432 0,-0.145924 0.12281,-0.243201 0.24561,-0.243201 0.14737,0 0.2456,0.09728 0.2456,0.243201 z m 56.78402,3.696671 c -0.36841,0.364801 -2.28414,0.340477 -2.92271,-0.02434 -0.34385,-0.194571 0,-0.243209 1.39995,-0.267533 1.44907,0 1.7438,0.07294 1.52276,0.291848 z m -33.35324,2.018575 c -0.0982,0.194553 -0.19648,0.3648 -0.24561,0.3648 -0.0491,0 -0.0982,-0.170247 -0.0982,-0.3648 0,-0.194562 0.0982,-0.36481 0.24561,-0.36481 0.1228,0 0.17192,0.170248 0.0982,0.36481 z m -9.87335,5.155869 c 0.36842,0.80258 0.5649,1.84834 0.63858,3.25891 0.0982,1.9213 0.0491,2.18882 -0.46664,2.91843 -0.3193,0.46207 -0.61402,0.87552 -0.63859,0.92416 -0.39297,0.65665 -3.75777,-6.42052 -3.75777,-7.92837 0,-0.24321 0.49122,-0.31617 1.86661,-0.31617 h 1.84204 z m -74.958824,10.77386 c 0,0.26753 -0.171924,0.4864 -0.368408,0.4864 -0.41753,0 -0.442091,-0.0487 -0.221046,-0.58368 0.221046,-0.55936 0.589454,-0.48639 0.589454,0.0973 z m 84.905854,2.84546 c -0.0491,0.51073 -0.0982,0.14593 -0.0982,-0.77823 0,-0.9485 0.0491,-1.33762 0.0982,-0.92418 0.0491,0.43777 0.0491,1.21601 0,1.70241 z m 2.3087,7.58791 c -1.25259,5.69092 -5.94366,14.7137 -9.50495,18.3131 l -1.12978,1.16737 h -2.23501 -2.25958 l 2.01397,-2.01858 c 2.33326,-2.33475 2.75079,-3.08867 4.61739,-8.43911 2.50517,-7.15013 3.88057,-9.99559 5.84541,-11.86825 0.58946,-0.58369 1.52276,-1.19169 2.03853,-1.38624 l 0.95786,-0.31616 0.0737,1.14304 c 0.0491,0.63232 -0.14736,2.16449 -0.41752,3.40483 z m -89.596929,-1.53218 c 0.122803,0.60801 0.02456,0.87553 -0.466649,1.31329 l -0.589454,0.55936 v -0.8512 c 0,-0.46208 0.122802,-1.21601 0.270165,-1.65377 0.319289,-0.87552 0.540333,-0.68097 0.785938,0.63232 z m 80.141109,8.36614 c -0.36841,3.93987 -2.23501,7.61223 -5.40333,10.70088 l -1.621,1.58083 -1.91571,0.0729 c -1.05611,0.0487 -2.38238,-0.0243 -2.94727,-0.17023 l -1.03154,-0.29184 0.95786,-1.14306 c 1.3017,-1.5565 1.44907,-1.92129 1.7438,-3.98851 0.46665,-3.30755 0.71225,-4.08579 1.35083,-4.08579 0.9333,0 3.3648,-0.82689 4.4209,-1.50786 0.54033,-0.3648 1.69468,-1.14305 2.57886,-1.75105 0.88418,-0.60801 1.69467,-1.11872 1.81747,-1.11872 0.12281,0 0.14737,0.7296 0.0491,1.7024 z m -79.969184,1.11873 c 0,0.80257 -0.171925,1.72673 -0.41753,2.23746 l -0.442089,0.89984 -0.07368,-0.9728 c -0.147363,-1.60513 0.171924,-3.52643 0.589453,-3.52643 0.245606,0 0.343849,0.34048 0.343849,1.36193 z" />
  </g>
</svg>
