<?xml version="1.0" encoding="UTF-8" standalone="no"?>
<svg
   xmlns:dc="http://purl.org/dc/elements/1.1/"
   xmlns:cc="http://creativecommons.org/ns#"
   xmlns:rdf="http://www.w3.org/1999/02/22-rdf-syntax-ns#"
   xmlns:svg="http://www.w3.org/2000/svg"
   xmlns="http://www.w3.org/2000/svg"
   xmlns:sodipodi="http://sodipodi.sourceforge.net/DTD/sodipodi-0.dtd"
   xmlns:inkscape="http://www.inkscape.org/namespaces/inkscape"
   sodipodi:docname="IconSurvive.svg"
   inkscape:version="1.0 (4035a4fb49, 2020-05-01)"
   id="svg8"
   version="1.1"
   viewBox="0 0 210 297"
   height="297mm"
   width="210mm">
  <defs
     id="defs2" />
  <sodipodi:namedview
     inkscape:window-maximized="1"
     inkscape:window-y="-8"
     inkscape:window-x="-8"
     inkscape:window-height="1017"
     inkscape:window-width="1920"
     showgrid="false"
     inkscape:document-rotation="0"
     inkscape:current-layer="layer1"
     inkscape:document-units="mm"
     inkscape:cy="478.93394"
     inkscape:cx="241.18791"
     inkscape:zoom="0.49497475"
     inkscape:pageshadow="2"
     inkscape:pageopacity="0.0"
     borderopacity="1.0"
     bordercolor="#666666"
     pagecolor="#ffffff"
     id="base" />
  <metadata
     id="metadata5">
    <rdf:RDF>
      <cc:Work
         rdf:about="">
        <dc:format>image/svg+xml</dc:format>
        <dc:type
           rdf:resource="http://purl.org/dc/dcmitype/StillImage" />
        <dc:title></dc:title>
      </cc:Work>
    </rdf:RDF>
  </metadata>
  <g
     id="layer1"
     inkscape:groupmode="layer"
     inkscape:label="Слой 1">
    <g
       style="fill:#008cff;fill-opacity:1"
       transform="matrix(0.01961331,0,0,-0.0212833,9.4303016,244.35243)"
       fill="#000000"
       stroke="none"
       id="g899">
      <path
         style="fill:#008cff;fill-opacity:1"
         d="m 5315,9774 c -99,-51 -277,-292 -365,-494 -209,-478 -194,-1023 41,-1480 94,-183 115,-206 995,-1096 l 674,-682 -238,-234 c -131,-128 -252,-244 -269,-256 l -31,-22 -39,72 c -22,40 -87,171 -146,291 -129,265 -169,332 -209,353 -65,34 -133,7 -399,-159 -200,-124 -271,-162 -290,-155 -8,3 -47,77 -88,164 -154,332 -241,503 -271,533 -62,62 -148,34 -415,-134 -166,-104 -276,-165 -297,-165 -11,0 -52,79 -128,243 -193,416 -230,479 -289,492 -58,13 -172,-45 -484,-246 -93,-60 -172,-109 -176,-109 -4,0 -77,152 -162,337 -162,354 -183,390 -253,413 -62,20 -119,-7 -458,-222 -103,-65 -192,-118 -197,-118 -9,0 -49,79 -225,443 -96,198 -142,260 -208,278 -59,15 -92,4 -142,-52 -52,-58 -91,-146 -248,-564 -180,-476 -226,-623 -240,-754 -37,-349 108,-689 389,-912 41,-33 93,-69 115,-80 100,-51 1411,-513 2738,-966 623,-212 820,-283 820,-295 0,-5 -141,-152 -313,-325 l -313,-316 -395,121 c -396,122 -741,225 -856,257 -75,21 -104,13 -172,-50 -60,-55 -73,-90 -78,-220 -3,-68 -10,-118 -19,-132 -69,-109 -483,83 -984,457 -69,52 -152,108 -185,124 l -60,31 -199,3 c -232,4 -706,-13 -791,-29 C 340,4098 248,4033 185,3930 145,3865 73,3683 33,3548 11,3474 6,3434 5,3355 c 0,-91 3,-106 31,-165 61,-128 87,-148 531,-398 l 303,-170 647,-222 c 863,-296 1633,-562 1713,-592 l 65,-25 25,-74 c 15,-41 43,-118 63,-171 20,-53 37,-105 37,-114 0,-9 -18,-38 -41,-65 -189,-226 -244,-542 -145,-831 44,-129 86,-197 176,-288 165,-165 368,-240 618,-227 406,21 686,268 762,672 19,103 29,124 58,131 123,27 338,114 429,173 32,21 141,116 243,212 374,352 2649,2617 3622,3606 447,454 502,526 586,765 104,294 92,712 -28,1000 -49,119 -142,251 -259,369 -157,157 -314,254 -524,324 -136,45 -261,59 -461,52 -175,-6 -237,-15 -365,-53 l -84,-26 -796,795 C 6200,9041 5506,9725 5456,9762 c -45,32 -94,37 -141,12 z m 722,-1033 c 351,-346 869,-860 1151,-1143 l 512,-513 -410,-410 -410,-410 -521,520 c -543,543 -889,901 -984,1020 -110,137 -183,285 -232,473 -31,122 -43,358 -23,491 14,99 49,226 85,311 45,108 162,290 186,290 5,0 296,-283 646,-629 z M 1414,7153 c 24,-49 69,-144 101,-212 81,-176 107,-215 160,-241 75,-36 104,-24 442,192 114,72 214,131 222,132 11,1 65,-98 178,-326 218,-439 235,-457 376,-387 34,18 162,94 284,170 122,77 229,139 238,139 22,0 58,-62 152,-265 191,-407 235,-475 309,-475 46,0 135,46 345,178 186,116 276,165 292,159 7,-3 47,-79 88,-168 141,-313 245,-514 279,-542 63,-54 122,-33 412,145 203,125 279,168 297,168 9,0 76,-131 211,-415 l 71,-149 -392,-392 -391,-391 -397,134 c -1535,519 -3184,1094 -3282,1145 -234,120 -381,387 -341,619 15,84 134,447 228,692 38,97 70,177 71,177 2,0 23,-39 47,-87 z m 7349,-166 c 330,-114 572,-335 676,-619 48,-129 55,-178 55,-343 -1,-145 -3,-168 -28,-250 -59,-194 -83,-226 -451,-609 -313,-327 -3246,-3260 -3622,-3623 -190,-183 -322,-302 -356,-322 -207,-118 -477,-148 -727,-80 -271,74 -507,279 -660,572 l -50,97 v 265 265 l 56,113 c 72,143 113,193 409,500 371,385 3581,3585 3740,3729 260,235 315,271 483,313 86,22 114,25 247,22 131,-3 160,-7 228,-30 z M 1363,3809 c 23,-12 114,-72 202,-134 415,-292 626,-408 843,-467 95,-25 285,-31 347,-9 103,36 159,99 227,256 23,53 47,99 54,102 8,3 78,-14 156,-37 265,-78 693,-211 700,-218 4,-4 -58,-77 -138,-162 -80,-85 -177,-195 -215,-245 -120,-152 -237,-426 -261,-610 -5,-44 -14,-90 -19,-102 -11,-28 56,-48 -829,252 -1523,518 -1373,463 -1559,566 -291,161 -475,267 -518,298 l -42,30 20,71 c 10,38 47,147 80,240 l 61,170 147,1 c 80,1 225,5 321,8 342,14 376,13 423,-10 z M 3736,1069 c 223,-160 379,-228 624,-275 46,-8 92,-20 102,-25 55,-29 -20,-189 -148,-315 -177,-176 -420,-189 -616,-34 -68,54 -135,136 -171,210 -40,83 -50,216 -22,301 25,79 102,209 124,209 4,0 52,-32 107,-71 z"
         id="path889" />
      <path
         style="fill:#008cff;fill-opacity:1"
         d="m 5808,8630 c -72,-22 -128,-95 -128,-169 0,-58 37,-100 419,-482 371,-370 399,-392 470,-370 83,24 150,116 137,186 -4,16 -22,50 -42,75 -58,74 -428,453 -571,586 -167,155 -227,191 -285,174 z"
         id="path891" />
      <path
         style="fill:#008cff;fill-opacity:1"
         d="m 8478,6220 c -32,-9 -135,-90 -188,-145 -19,-20 -70,-68 -113,-107 l -77,-71 -135,132 c -160,156 -210,191 -274,191 -91,0 -151,-64 -151,-160 0,-75 16,-98 182,-266 l 139,-142 -141,-146 c -77,-81 -149,-161 -160,-179 -29,-46 -27,-133 3,-178 29,-44 80,-69 138,-69 59,0 86,19 264,192 l 140,136 151,-148 c 203,-197 253,-220 344,-157 48,32 72,69 77,120 8,66 -22,110 -188,281 l -141,145 154,165 c 181,193 197,217 180,275 -28,93 -125,155 -204,131 z"
         id="path893" />
      <path
         style="fill:#008cff;fill-opacity:1"
         d="m 6832,3861 c -69,-50 -188,-166 -1112,-1081 -493,-487 -930,-913 -973,-947 -85,-69 -116,-79 -207,-70 -70,8 -94,18 -183,76 -57,37 -78,46 -127,49 -69,5 -116,-17 -149,-72 -65,-105 11,-216 214,-316 105,-51 177,-64 325,-58 109,5 126,8 182,36 141,70 404,317 1337,1258 668,673 918,935 927,971 16,61 -29,143 -93,169 -52,22 -95,17 -141,-15 z"
         id="path895" />
      <path
         style="fill:#008cff;fill-opacity:1"
         d="m 1535,3210 c -33,-13 -86,-75 -100,-115 -14,-41 -7,-80 20,-121 37,-56 756,-362 860,-366 76,-3 160,88 160,174 0,68 -25,95 -135,150 -194,96 -702,288 -760,287 -14,0 -34,-4 -45,-9 z"
         id="path897" />
    </g>
  </g>
</svg>
