<?xml version="1.0" encoding="UTF-8" standalone="no"?>
<svg
   xmlns:dc="http://purl.org/dc/elements/1.1/"
   xmlns:cc="http://creativecommons.org/ns#"
   xmlns:rdf="http://www.w3.org/1999/02/22-rdf-syntax-ns#"
   xmlns:svg="http://www.w3.org/2000/svg"
   xmlns="http://www.w3.org/2000/svg"
   xmlns:sodipodi="http://sodipodi.sourceforge.net/DTD/sodipodi-0.dtd"
   xmlns:inkscape="http://www.inkscape.org/namespaces/inkscape"
   inkscape:version="1.0 (4035a4fb49, 2020-05-01)"
   sodipodi:docname="IconBilets.svg"
   id="svg2706"
   preserveAspectRatio="xMidYMid meet"
   viewBox="0 0 1600.000000 1600.000000"
   height="1600.000000pt"
   width="1600.000000pt"
   version="1.0">
  <metadata
     id="metadata2712">
    <rdf:RDF>
      <cc:Work
         rdf:about="">
        <dc:format>image/svg+xml</dc:format>
        <dc:type
           rdf:resource="http://purl.org/dc/dcmitype/StillImage" />
        <dc:title></dc:title>
      </cc:Work>
    </rdf:RDF>
  </metadata>
  <defs
     id="defs2710" />
  <sodipodi:namedview
     inkscape:current-layer="svg2706"
     inkscape:window-maximized="1"
     inkscape:window-y="-8"
     inkscape:window-x="-8"
     inkscape:cy="848.06058"
     inkscape:cx="952.92982"
     inkscape:zoom="0.28173786"
     showgrid="false"
     id="namedview2708"
     inkscape:window-height="1017"
     inkscape:window-width="1920"
     inkscape:pageshadow="2"
     inkscape:pageopacity="0"
     guidetolerance="10"
     gridtolerance="10"
     objecttolerance="10"
     borderopacity="1"
     bordercolor="#666666"
     pagecolor="#ffffff" />
  <g
     style="fill:#0090ff;fill-opacity:1"
     id="g2704"
     stroke="none"
     fill="#000000"
     transform="translate(0.000000,1600.000000) scale(0.100000,-0.100000)">
    <path
       style="fill:#0090ff;fill-opacity:1"
       id="path2700"
       d="M10620 14695 c-149 -37 -202 -75 -457 -329 l-213 -210 438 -441 c242 -243 459 -469 484 -505 52 -74 108 -181 132 -254 67 -198 63 -450 -10 -644 -21 -57 -22 -63 -6 -57 135 57 263 79 426 72 197 -7 354 -60 515 -174 67 -47 1301 -1267 1476 -1460 230 -253 339 -509 352 -829 12 -268 -62 -528 -214 -758 -62 -94 -294 -329 -3485 -3522 l-3420 -3421 73 -67 c202 -187 470 -226 719 -105 l85 41 3866 3867 3867 3866 41 85 c94 192 93 378 0 570 -41 85 -42 85 -763 808 -803 805 -767 774 -907 780 -73 4 -81 2 -190 -46 -63 -28 -134 -56 -159 -62 -61 -16 -223 -14 -295 5 -278 71 -472 339 -450 623 7 96 11 110 78 261 49 111 49 115 45 195 -3 58 -11 94 -27 126 -28 55 -1396 1431 -1481 1489 -114 79 -223 111 -370 110 -52 0 -120 -7 -150 -14z" />
    <path
       style="fill:#0090ff;fill-opacity:1"
       id="path2702"
       d="M8375 14374 c-33 -8 -94 -31 -135 -51 -72 -35 -102 -63 -700 -660 -564 -563 -623 -625 -605 -634 11 -6 83 -75 161 -153 161 -162 185 -201 192 -310 15 -244 -240 -412 -458 -301 -38 19 -97 69 -191 164 -75 75 -141 145 -147 156 -10 18 -311 -280 -3035 -3005 l-3025 -3025 -41 -85 c-94 -192 -93 -378 0 -570 41 -85 42 -85 762 -807 525 -526 734 -729 771 -749 40 -22 67 -29 132 -32 80 -4 84 -3 180 41 55 25 126 53 158 62 74 22 227 22 311 0 279 -71 472 -339 450 -622 -7 -91 -22 -141 -85 -282 -41 -90 -42 -97 -38 -175 3 -65 10 -92 32 -132 20 -37 223 -246 749 -771 722 -720 722 -721 807 -762 192 -93 378 -94 570 0 l85 41 3026 3025 3025 3024 -152 152 c-160 160 -188 201 -202 289 -21 141 44 268 173 336 43 23 62 27 140 27 126 0 154 -17 340 -205 l149 -151 617 618 c613 615 617 618 658 703 94 192 94 378 0 570 -41 85 -42 85 -762 807 -525 526 -734 729 -771 749 -40 22 -67 29 -132 32 -80 4 -84 3 -180 -41 -142 -65 -199 -79 -312 -78 -115 1 -191 19 -291 69 -236 118 -369 418 -300 677 6 22 34 91 61 154 50 111 50 115 46 195 -3 65 -10 92 -32 132 -20 37 -223 246 -749 771 -694 692 -725 721 -797 756 -41 20 -104 43 -140 51 -81 19 -235 19 -315 0z m-586 -2220 c43 -19 89 -58 202 -172 80 -81 155 -165 167 -187 110 -217 -42 -468 -283 -468 -116 0 -160 26 -336 201 -177 176 -203 220 -203 342 0 60 5 86 25 130 78 164 261 231 428 154z m888 -896 c51 -18 78 -41 213 -177 177 -178 201 -214 208 -325 6 -98 -23 -172 -92 -242 -70 -69 -144 -98 -242 -92 -111 7 -147 31 -325 208 -138 137 -158 162 -178 215 -30 80 -27 189 7 255 80 154 247 219 409 158z m921 -913 c43 -20 90 -60 202 -173 81 -81 156 -165 168 -187 109 -218 -41 -468 -283 -468 -117 0 -162 27 -337 201 -177 178 -203 222 -202 342 0 91 26 155 87 218 98 101 235 126 365 67z m889 -896 c51 -19 77 -41 213 -178 177 -178 201 -215 208 -325 8 -140 -73 -266 -203 -315 -78 -30 -178 -26 -251 10 -69 33 -342 306 -375 374 -28 60 -38 173 -19 232 30 92 110 175 204 210 52 19 158 16 223 -8z" />
  </g>
</svg>
