<?xml version="1.0" encoding="UTF-8" standalone="no"?>
<svg
   xmlns:dc="http://purl.org/dc/elements/1.1/"
   xmlns:cc="http://creativecommons.org/ns#"
   xmlns:rdf="http://www.w3.org/1999/02/22-rdf-syntax-ns#"
   xmlns:svg="http://www.w3.org/2000/svg"
   xmlns="http://www.w3.org/2000/svg"
   xmlns:sodipodi="http://sodipodi.sourceforge.net/DTD/sodipodi-0.dtd"
   xmlns:inkscape="http://www.inkscape.org/namespaces/inkscape"
   inkscape:version="1.0 (4035a4fb49, 2020-05-01)"
   sodipodi:docname="IconCase.svg"
   id="svg1519"
   preserveAspectRatio="xMidYMid meet"
   viewBox="0 0 980.000000 920.000000"
   height="920.000000pt"
   width="980.000000pt"
   version="1.0">
  <metadata
     id="metadata1525">
    <rdf:RDF>
      <cc:Work
         rdf:about="">
        <dc:format>image/svg+xml</dc:format>
        <dc:type
           rdf:resource="http://purl.org/dc/dcmitype/StillImage" />
        <dc:title></dc:title>
      </cc:Work>
    </rdf:RDF>
  </metadata>
  <defs
     id="defs1523" />
  <sodipodi:namedview
     inkscape:current-layer="svg1519"
     inkscape:window-maximized="1"
     inkscape:window-y="-8"
     inkscape:window-x="-8"
     inkscape:cy="613.33333"
     inkscape:cx="653.33333"
     inkscape:zoom="0.69293478"
     showgrid="false"
     id="namedview1521"
     inkscape:window-height="1017"
     inkscape:window-width="1920"
     inkscape:pageshadow="2"
     inkscape:pageopacity="0"
     guidetolerance="10"
     gridtolerance="10"
     objecttolerance="10"
     borderopacity="1"
     bordercolor="#666666"
     pagecolor="#ffffff" />
  <g
     style="fill:#0090ff;fill-opacity:1"
     id="g1517"
     stroke="none"
     fill="#000000"
     transform="translate(0.000000,920.000000) scale(0.100000,-0.100000)">
    <path
       style="fill:#0090ff;fill-opacity:1"
       id="path1515"
       d="M3488 9164 c-148 -47 -282 -159 -352 -294 -68 -131 -69 -137 -74 -537 l-4 -363 -947 0 c-594 0 -978 -4 -1031 -10 -133 -17 -265 -56 -386 -114 -345 -169 -572 -457 -671 -853 -16 -63 -17 -274 -20 -2956 -4 -3201 -8 -2985 62 -3195 122 -365 407 -649 773 -772 193 -65 -116 -60 4062 -60 4178 0 3869 -5 4062 60 366 123 651 407 773 772 70 210 66 -5 63 3195 l-3 2888 -32 120 c-38 141 -126 324 -205 429 -203 269 -507 445 -838 486 -53 6 -437 10 -1031 10 l-947 0 -4 363 c-5 402 -5 405 -76 542 -50 96 -154 198 -252 247 -144 72 -49 68 -1520 68 l-1325 -1 -77 -25z m2468 -616 c28 -15 70 -48 92 -73 64 -72 72 -110 72 -322 l0 -183 -1220 0 -1220 0 0 183 c0 141 4 194 16 230 28 81 113 159 204 188 14 4 471 7 1015 6 l990 -2 51 -27z m2784 -1211 c229 -77 389 -250 434 -469 14 -67 16 -184 16 -868 l0 -790 -4290 0 -4291 0 3 823 c4 918 -1 853 76 1002 79 151 253 279 424 310 60 11 748 13 3823 12 3617 -2 3752 -3 3805 -20z m-5042 -2824 c-22 -110 -24 -317 -3 -435 65 -373 316 -707 662 -882 179 -90 317 -120 548 -120 169 1 187 3 297 32 467 123 815 497 903 971 21 114 19 312 -4 429 l-18 92 1554 0 1553 0 0 -1705 c0 -1890 3 -1787 -65 -1930 -60 -123 -155 -219 -280 -280 -143 -71 209 -65 -3945 -65 -4154 0 -3802 -6 -3945 65 -125 61 -220 156 -281 282 -67 138 -64 45 -64 1929 l0 1704 1553 0 1553 0 -18 -87z m1757 35 c76 -166 73 -362 -6 -521 -64 -130 -157 -222 -284 -283 -240 -115 -509 -67 -700 124 -176 175 -224 443 -121 676 l25 56 531 0 531 0 24 -52z" />
  </g>
</svg>
