<svg xmlns="http://www.w3.org/2000/svg" version="1.0" width="282.000000" height="277.000000" preserveAspectRatio="xMidYMid meet" style=""><rect id="backgroundrect" width="100%" height="100%" x="0" y="0" fill="none" stroke="none"/>


<g class="currentLayer" style=""><title>Layer 1</title><g transform="translate(0,277) scale(0.10000000149011612,-0.10000000149011612) " fill="#008cff" stroke="none" id="svg_1" class="" fill-opacity="1">
<path d="M701 1632 c-281 -527 -511 -965 -511 -973 0 -8 22 -86 48 -174 l47 -159 35 -7 c111 -21 107 -22 126 27 9 24 22 44 29 44 15 0 319 -41 321 -43 1 -1 8 -24 16 -52 l14 -50 68 -9 c38 -5 71 -5 76 0 7 8 299 710 749 1799 l87 210 -15 135 -16 135 -30 6 c-16 4 -49 7 -72 8 -40 1 -43 -1 -61 -43 l-20 -43 -108 16 -108 16 -12 48 c-7 27 -14 50 -16 52 -2 1 -33 6 -69 9 l-66 7 -512 -959z m797 722 c33 -4 51 -11 48 -18 -26 -63 -810 -1733 -816 -1740 -5 -4 -48 -3 -97 3 -127 16 -143 21 -143 38 0 8 40 92 89 186 48 95 245 482 436 860 l347 689 42 -6 c22 -3 65 -9 94 -12z" id="svg_2" fill="#008cff" fill-opacity="1"/>
<path d="M563 2390 c-13 -5 -23 -13 -23 -17 0 -8 247 -155 282 -168 12 -5 21 2 32 24 9 16 16 34 16 39 0 5 -42 35 -92 67 -76 48 -102 59 -143 62 -27 1 -60 -1 -72 -7z" id="svg_3" fill="#008cff" fill-opacity="1"/>
<path d="M444 2278 c-23 -44 -22 -127 2 -170 13 -21 58 -59 129 -105 61 -40 113 -73 116 -73 6 0 99 173 99 183 0 5 -102 67 -282 171 l-47 27 -17 -33z" id="svg_4" fill="#008cff" fill-opacity="1"/>
<path d="M1847 1963 c-16 -15 -3 -22 66 -33 159 -26 543 -92 555 -96 10 -3 9 -11 -4 -35 -9 -18 -14 -46 -12 -65 3 -29 1 -33 -17 -29 -11 3 -146 35 -300 70 -154 36 -292 68 -306 71 -29 6 -50 -13 -29 -26 6 -4 37 -13 68 -20 31 -6 191 -43 355 -80 221 -51 305 -66 322 -60 35 13 58 55 58 106 0 80 1 80 -375 146 -341 59 -370 63 -381 51z m717 -175 c6 -18 5 -36 -4 -57 -16 -39 -29 -39 -36 -1 -4 17 -10 30 -15 30 -13 0 -11 34 3 48 19 19 41 10 52 -20z" id="svg_5" fill="#008cff" fill-opacity="1"/>
<path d="M267 1940 c-15 -12 -27 -28 -27 -37 0 -13 251 -304 268 -310 4 -2 24 29 45 67 l38 70 -39 48 c-22 26 -49 56 -61 66 -30 27 -26 34 16 38 20 2 38 8 40 14 5 16 -34 31 -122 44 -44 6 -91 14 -105 17 -17 3 -35 -3 -53 -17z" id="svg_6" fill="#008cff" fill-opacity="1"/>
<path d="M1920 1875 c-13 -14 -19 -25 -14 -25 14 0 54 30 54 41 0 16 -16 10 -40 -16z" id="svg_7" fill="#008cff" fill-opacity="1"/>
<path d="M2060 1845 c-30 -32 -14 -32 25 0 20 16 25 24 14 25 -8 0 -26 -11 -39 -25z" id="svg_8" fill="#008cff" fill-opacity="1"/>
<path d="M2212 1830 c-18 -11 -32 -24 -32 -30 0 -11 19 -3 55 23 31 24 13 29 -23 7z" id="svg_9" fill="#008cff" fill-opacity="1"/>
<path d="M2340 1790 c-19 -16 -29 -29 -23 -30 7 0 27 13 45 30 43 38 23 39 -22 0z" id="svg_10" fill="#008cff" fill-opacity="1"/>
<path d="M1741 1719 c-6 -17 -9 -35 -6 -39 3 -5 121 -82 263 -171 141 -89 272 -172 289 -184 l33 -22 -41 -26 c-30 -20 -45 -24 -58 -17 -10 5 -131 82 -271 170 -188 121 -255 158 -261 149 -21 -34 -81 -221 -73 -228 21 -18 603 -437 643 -463 85 -54 210 -32 282 50 68 77 88 184 50 267 -24 53 -43 68 -196 160 -71 43 -240 145 -375 228 -134 82 -250 151 -256 154 -6 2 -17 -10 -23 -28z m724 -544 c19 -18 25 -35 25 -65 0 -125 -143 -190 -193 -88 -24 50 -10 104 38 147 45 40 95 42 130 6z" id="svg_11" fill="#008cff" fill-opacity="1"/>
<path d="M1563 1275 c-26 -49 -124 -296 -121 -304 1 -5 121 -135 265 -289 145 -155 259 -283 254 -286 -5 -3 -45 0 -90 6 l-82 12 -197 218 c-108 120 -199 218 -203 218 -5 0 -69 -150 -69 -164 0 -7 171 -200 310 -352 l37 -40 197 -29 c108 -15 198 -26 200 -24 2 2 33 94 69 203 l67 199 -45 51 c-24 28 -165 175 -313 326 -241 246 -270 273 -279 255z" id="svg_12" fill="#008cff" fill-opacity="1"/>
</g></g></svg>