<?xml version="1.0" encoding="UTF-8" standalone="no"?>
<svg
   xmlns:dc="http://purl.org/dc/elements/1.1/"
   xmlns:cc="http://creativecommons.org/ns#"
   xmlns:rdf="http://www.w3.org/1999/02/22-rdf-syntax-ns#"
   xmlns:svg="http://www.w3.org/2000/svg"
   xmlns="http://www.w3.org/2000/svg"
   xmlns:sodipodi="http://sodipodi.sourceforge.net/DTD/sodipodi-0.dtd"
   xmlns:inkscape="http://www.inkscape.org/namespaces/inkscape"
   inkscape:version="1.0 (4035a4fb49, 2020-05-01)"
   sodipodi:docname="IconStudy.svg"
   id="svg2116"
   preserveAspectRatio="xMidYMid meet"
   viewBox="0 0 980.000000 980.000000"
   height="980.000000pt"
   width="980.000000pt"
   version="1.0">
  <metadata
     id="metadata2122">
    <rdf:RDF>
      <cc:Work
         rdf:about="">
        <dc:format>image/svg+xml</dc:format>
        <dc:type
           rdf:resource="http://purl.org/dc/dcmitype/StillImage" />
        <dc:title></dc:title>
      </cc:Work>
    </rdf:RDF>
  </metadata>
  <defs
     id="defs2120" />
  <sodipodi:namedview
     inkscape:current-layer="svg2116"
     inkscape:window-maximized="1"
     inkscape:window-y="-8"
     inkscape:window-x="-8"
     inkscape:cy="653.33333"
     inkscape:cx="653.33333"
     inkscape:zoom="0.6505102"
     showgrid="false"
     id="namedview2118"
     inkscape:window-height="1017"
     inkscape:window-width="1920"
     inkscape:pageshadow="2"
     inkscape:pageopacity="0"
     guidetolerance="10"
     gridtolerance="10"
     objecttolerance="10"
     borderopacity="1"
     bordercolor="#666666"
     pagecolor="#ffffff" />
  <g
     style="fill:#0090ff;fill-opacity:1"
     id="g2114"
     stroke="none"
     fill="#000000"
     transform="translate(0.000000,980.000000) scale(0.100000,-0.100000)">
    <path
       style="fill:#0090ff;fill-opacity:1"
       id="path2112"
       d="M7775 9783 c-128 -39 -446 -444 -628 -800 -129 -253 -217 -490 -296 -799 -68 -267 -152 -737 -167 -934 -11 -143 -2 -140 -461 -190 -560 -61 -835 -105 -1140 -180 -637 -158 -1073 -393 -1448 -781 -315 -326 -529 -717 -681 -1246 -85 -298 -137 -611 -214 -1292 -22 -199 -45 -372 -50 -385 -12 -33 -43 -42 -235 -71 -354 -53 -444 -67 -585 -96 -691 -142 -1241 -396 -1672 -773 -213 -186 -250 -314 -130 -447 34 -38 56 -52 99 -65 97 -28 179 -2 281 90 34 31 69 56 77 56 15 0 193 -169 650 -620 299 -294 415 -400 439 -400 23 0 195 232 248 334 l20 39 -69 71 c-37 39 -228 233 -424 431 -322 326 -419 432 -419 456 0 19 416 209 456 209 7 0 145 -129 306 -286 161 -158 310 -298 332 -312 38 -26 38 -26 53 -7 29 41 123 388 123 458 0 42 -24 80 -107 170 -73 79 -102 121 -91 132 13 14 347 66 511 80 l77 7 0 -58 c0 -144 -113 -730 -196 -1017 -98 -340 -307 -740 -524 -1001 -36 -43 -84 -101 -108 -129 -53 -65 -92 -142 -92 -182 0 -47 27 -117 61 -158 83 -100 225 -111 338 -25 130 100 414 492 555 767 203 397 363 974 440 1591 14 108 29 208 35 222 18 49 31 52 451 98 938 103 1405 214 1860 440 819 407 1295 1103 1494 2190 40 217 73 453 111 790 41 374 52 448 71 477 16 26 53 34 304 68 544 73 1065 212 1443 384 338 155 823 506 896 649 64 126 18 262 -111 326 -95 47 -172 28 -293 -74 -241 -202 -416 -320 -646 -434 -279 -139 -484 -205 -919 -294 -230 -48 -507 -92 -574 -92 -32 0 -48 5 -52 15 -18 47 91 715 117 715 5 0 79 -65 165 -145 85 -80 166 -153 180 -162 30 -19 58 -14 276 51 171 52 238 79 238 99 0 8 -129 147 -286 308 -307 315 -394 414 -394 447 0 31 39 130 99 251 54 111 84 151 112 151 26 0 158 -121 523 -478 319 -314 440 -422 472 -422 70 0 319 191 336 258 11 40 -54 112 -592 657 -312 316 -392 402 -402 435 -3 8 11 44 31 80 31 56 36 74 36 130 -1 104 -61 192 -154 225 -53 18 -91 18 -156 -2z m-1169 -3270 c-4 -49 -11 -103 -17 -120 -14 -43 -35 -49 -299 -84 -85 -11 -159 -24 -163 -28 -9 -9 43 -71 193 -226 111 -116 210 -230 210 -244 0 -16 -70 -403 -86 -473 -9 -40 -20 -77 -24 -81 -9 -10 -168 140 -615 584 l-330 328 -72 -14 c-129 -25 -392 -112 -421 -140 -11 -10 -4 -24 40 -76 47 -57 862 -891 1117 -1144 56 -55 101 -108 101 -117 0 -42 -212 -418 -235 -418 -16 0 -260 233 -806 771 -537 528 -679 664 -717 682 -19 9 -31 4 -79 -29 -75 -51 -263 -236 -263 -259 0 -27 104 -137 758 -798 332 -337 634 -645 670 -685 64 -72 65 -73 46 -93 -31 -34 -232 -164 -326 -210 l-87 -43 -603 600 c-580 577 -751 739 -769 729 -18 -12 -159 -400 -159 -440 0 -35 86 -129 499 -548 363 -369 491 -506 491 -526 0 -9 -207 -58 -403 -96 -130 -25 -139 -26 -163 -10 -14 9 -89 78 -167 153 -331 319 -380 363 -392 350 -3 -2 -21 -117 -40 -254 -36 -249 -47 -306 -65 -334 -7 -12 -36 -16 -125 -18 l-115 -4 5 44 c2 23 9 104 15 178 37 467 140 1071 237 1390 126 417 271 673 538 949 389 402 805 594 1575 725 371 63 783 113 949 115 l104 1 -7 -87z" />
  </g>
</svg>
