<?xml version="1.0" encoding="UTF-8" standalone="no"?>
<svg
   xmlns:dc="http://purl.org/dc/elements/1.1/"
   xmlns:cc="http://creativecommons.org/ns#"
   xmlns:rdf="http://www.w3.org/1999/02/22-rdf-syntax-ns#"
   xmlns:svg="http://www.w3.org/2000/svg"
   xmlns="http://www.w3.org/2000/svg"
   xmlns:sodipodi="http://sodipodi.sourceforge.net/DTD/sodipodi-0.dtd"
   xmlns:inkscape="http://www.inkscape.org/namespaces/inkscape"
   inkscape:version="1.0 (4035a4fb49, 2020-05-01)"
   sodipodi:docname="IconSecretcase.svg"
   id="svg918"
   preserveAspectRatio="xMidYMid meet"
   viewBox="0 0 980.000000 920.000000"
   height="920.000000pt"
   width="980.000000pt"
   version="1.0">
  <metadata
     id="metadata924">
    <rdf:RDF>
      <cc:Work
         rdf:about="">
        <dc:format>image/svg+xml</dc:format>
        <dc:type
           rdf:resource="http://purl.org/dc/dcmitype/StillImage" />
        <dc:title></dc:title>
      </cc:Work>
    </rdf:RDF>
  </metadata>
  <defs
     id="defs922" />
  <sodipodi:namedview
     inkscape:current-layer="svg918"
     inkscape:window-maximized="1"
     inkscape:window-y="-8"
     inkscape:window-x="-8"
     inkscape:cy="585.25536"
     inkscape:cx="914.96876"
     inkscape:zoom="0.48997888"
     showgrid="false"
     id="namedview920"
     inkscape:window-height="1017"
     inkscape:window-width="1920"
     inkscape:pageshadow="2"
     inkscape:pageopacity="0"
     guidetolerance="10"
     gridtolerance="10"
     objecttolerance="10"
     borderopacity="1"
     bordercolor="#666666"
     pagecolor="#ffffff" />
  <g
     style="fill:#0090ff;fill-opacity:1"
     id="g916"
     stroke="none"
     fill="#000000"
     transform="translate(0.000000,920.000000) scale(0.100000,-0.100000)">
    <path
       style="fill:#0090ff;fill-opacity:1"
       id="path910"
       d="M3520 9174 c-230 -61 -412 -261 -450 -496 -5 -35 -10 -208 -10 -385 l0 -323 -947 0 c-1001 0 -1059 -2 -1213 -47 -213 -61 -366 -151 -526 -308 -182 -180 -273 -337 -342 -590 l-27 -100 -3 -2888 c-3 -3169 -6 -2981 57 -3178 129 -401 448 -701 868 -817 l98 -27 2583 -3 c2132 -2 2582 0 2582 11 0 13 75 516 84 570 l6 27 -2564 0 c-2519 0 -2564 0 -2640 20 -101 26 -182 69 -261 142 -81 74 -138 161 -173 263 l-27 80 -3 1738 -2 1737 1545 0 1545 0 0 -37 c0 -21 -7 -91 -15 -156 -66 -529 269 -1066 787 -1260 142 -54 242 -71 418 -71 173 -1 255 11 391 55 422 138 747 513 824 953 17 99 20 259 6 351 -5 33 -12 84 -15 113 l-7 52 1551 0 1550 0 0 -950 c0 -522 1 -950 3 -950 1 0 137 -20 300 -45 164 -25 300 -45 302 -45 3 0 5 944 5 2098 0 1467 -3 2124 -11 2187 -33 267 -148 501 -344 701 -186 188 -361 286 -630 351 -63 15 -173 17 -1072 20 l-1001 4 -4 362 c-4 339 -5 366 -26 427 -24 73 -78 167 -134 234 -48 56 -167 136 -249 167 l-64 24 -1345 2 c-1152 2 -1353 0 -1400 -13z m2446 -626 c29 -15 68 -46 87 -69 59 -68 67 -107 67 -321 l0 -188 -1220 0 -1220 0 0 188 c0 214 8 253 67 321 33 40 89 75 143 92 14 4 475 7 1025 6 l1000 -2 51 -27z m2774 -1211 c172 -58 306 -171 379 -318 72 -146 71 -128 71 -1016 l0 -793 -4290 0 -4290 0 0 783 c1 881 1 882 69 1020 67 136 167 231 309 294 121 54 -88 51 3947 50 3617 -2 3752 -3 3805 -20z m-3288 -2792 c37 -68 58 -160 58 -249 0 -98 -15 -164 -55 -253 -153 -333 -552 -461 -864 -276 -139 83 -250 234 -287 389 -32 135 -8 307 56 412 l20 32 522 -2 523 -3 27 -50z" />
    <path
       style="fill:#0090ff;fill-opacity:1"
       id="path912"
       d="M7590 2820 c-151 -302 -279 -550 -285 -550 -23 0 -1167 -149 -1171 -152 -2 -2 194 -195 436 -428 242 -233 440 -429 440 -435 0 -6 -47 -280 -105 -610 -57 -329 -103 -600 -102 -602 2 -1 243 128 536 287 l533 289 531 -289 c292 -159 532 -288 534 -286 1 1 -38 276 -89 610 l-91 608 428 428 428 428 -34 6 c-45 8 -1127 146 -1142 146 -7 0 -136 248 -287 550 -151 303 -277 550 -280 550 -3 0 -129 -247 -280 -550z" />
    <path
       style="fill:#0090ff;fill-opacity:1"
       id="path914"
       d="M9537 1302 l-258 -258 60 -358 c33 -197 63 -361 67 -365 9 -9 126 122 179 199 87 130 148 274 187 440 15 67 21 134 25 320 3 129 4 245 2 258 -3 19 -44 -17 -262 -236z" />
  </g>
</svg>
